%TF.GenerationSoftware,KiCad,Pcbnew,8.0.3*%
%TF.CreationDate,2024-09-04T14:48:35-07:00*%
%TF.ProjectId,Calculator,43616c63-756c-4617-946f-722e6b696361,rev?*%
%TF.SameCoordinates,Original*%
%TF.FileFunction,Paste,Top*%
%TF.FilePolarity,Positive*%
%FSLAX46Y46*%
G04 Gerber Fmt 4.6, Leading zero omitted, Abs format (unit mm)*
G04 Created by KiCad (PCBNEW 8.0.3) date 2024-09-04 14:48:35*
%MOMM*%
%LPD*%
G01*
G04 APERTURE LIST*
G04 Aperture macros list*
%AMRoundRect*
0 Rectangle with rounded corners*
0 $1 Rounding radius*
0 $2 $3 $4 $5 $6 $7 $8 $9 X,Y pos of 4 corners*
0 Add a 4 corners polygon primitive as box body*
4,1,4,$2,$3,$4,$5,$6,$7,$8,$9,$2,$3,0*
0 Add four circle primitives for the rounded corners*
1,1,$1+$1,$2,$3*
1,1,$1+$1,$4,$5*
1,1,$1+$1,$6,$7*
1,1,$1+$1,$8,$9*
0 Add four rect primitives between the rounded corners*
20,1,$1+$1,$2,$3,$4,$5,0*
20,1,$1+$1,$4,$5,$6,$7,0*
20,1,$1+$1,$6,$7,$8,$9,0*
20,1,$1+$1,$8,$9,$2,$3,0*%
G04 Aperture macros list end*
%ADD10RoundRect,0.079500X-0.079500X-0.100500X0.079500X-0.100500X0.079500X0.100500X-0.079500X0.100500X0*%
%ADD11R,2.160000X1.120000*%
%ADD12RoundRect,0.300000X0.300000X-0.700000X0.300000X0.700000X-0.300000X0.700000X-0.300000X-0.700000X0*%
%ADD13O,1.200000X2.900000*%
%ADD14RoundRect,0.325000X0.325000X1.175000X-0.325000X1.175000X-0.325000X-1.175000X0.325000X-1.175000X0*%
%ADD15RoundRect,0.249999X-0.395001X-0.395001X0.395001X-0.395001X0.395001X0.395001X-0.395001X0.395001X0*%
%ADD16RoundRect,0.050000X-0.387500X-0.050000X0.387500X-0.050000X0.387500X0.050000X-0.387500X0.050000X0*%
%ADD17RoundRect,0.050000X-0.050000X-0.387500X0.050000X-0.387500X0.050000X0.387500X-0.050000X0.387500X0*%
%ADD18R,1.100000X1.400000*%
G04 APERTURE END LIST*
D10*
%TO.C,D16*%
X68053000Y-73074000D03*
X68743000Y-73074000D03*
%TD*%
D11*
%TO.C,SW18*%
X84328000Y-58174000D03*
X91058000Y-58174000D03*
%TD*%
%TO.C,SW17*%
X84328000Y-52324000D03*
X91058000Y-52324000D03*
%TD*%
D10*
%TO.C,D12*%
X65368000Y-76574000D03*
X66058000Y-76574000D03*
%TD*%
%TO.C,D7*%
X65368000Y-67824000D03*
X66058000Y-67824000D03*
%TD*%
D11*
%TO.C,SW23*%
X94778000Y-52324000D03*
X101508000Y-52324000D03*
%TD*%
%TO.C,SW16*%
X84328000Y-46474000D03*
X91058000Y-46474000D03*
%TD*%
%TO.C,SW20*%
X94778000Y-34774000D03*
X101508000Y-34774000D03*
%TD*%
D10*
%TO.C,D3*%
X62683000Y-71324000D03*
X63373000Y-71324000D03*
%TD*%
%TO.C,D20*%
X70738000Y-69574000D03*
X71428000Y-69574000D03*
%TD*%
%TO.C,D5*%
X62683000Y-74824000D03*
X63373000Y-74824000D03*
%TD*%
D11*
%TO.C,SW21*%
X94778000Y-40624000D03*
X101508000Y-40624000D03*
%TD*%
D10*
%TO.C,D15*%
X68053000Y-71324000D03*
X68743000Y-71324000D03*
%TD*%
%TO.C,D19*%
X70738000Y-67824000D03*
X71428000Y-67824000D03*
%TD*%
%TO.C,D10*%
X65368000Y-73074000D03*
X66058000Y-73074000D03*
%TD*%
%TO.C,D11*%
X65368000Y-74824000D03*
X66058000Y-74824000D03*
%TD*%
D11*
%TO.C,SW4*%
X63428000Y-46474000D03*
X70158000Y-46474000D03*
%TD*%
%TO.C,SW14*%
X84328000Y-34774000D03*
X91058000Y-34774000D03*
%TD*%
%TO.C,SW11*%
X73878000Y-52324000D03*
X80608000Y-52324000D03*
%TD*%
%TO.C,SW2*%
X63428000Y-34774000D03*
X70158000Y-34774000D03*
%TD*%
%TO.C,SW9*%
X73878000Y-40624000D03*
X80608000Y-40624000D03*
%TD*%
D10*
%TO.C,D6*%
X62683000Y-76574000D03*
X63373000Y-76574000D03*
%TD*%
%TO.C,D17*%
X68053000Y-74824000D03*
X68743000Y-74824000D03*
%TD*%
%TO.C,D22*%
X70738000Y-73074000D03*
X71428000Y-73074000D03*
%TD*%
D11*
%TO.C,SW10*%
X73878000Y-46474000D03*
X80608000Y-46474000D03*
%TD*%
%TO.C,SW24*%
X94778000Y-58174000D03*
X101508000Y-58174000D03*
%TD*%
%TO.C,SW19*%
X84328000Y-64024000D03*
X91058000Y-64024000D03*
%TD*%
D10*
%TO.C,D4*%
X62683000Y-73074000D03*
X63373000Y-73074000D03*
%TD*%
D11*
%TO.C,SW3*%
X63428000Y-40624000D03*
X70158000Y-40624000D03*
%TD*%
%TO.C,SW12*%
X73878000Y-58174000D03*
X80608000Y-58174000D03*
%TD*%
D12*
%TO.C,R3*%
X45078000Y-106113000D03*
X47578000Y-106113000D03*
X49578000Y-106113000D03*
X52078000Y-106113000D03*
%TD*%
D11*
%TO.C,SW15*%
X84328000Y-40624000D03*
X91058000Y-40624000D03*
%TD*%
D13*
%TO.C,J1*%
X114921999Y-96148000D03*
X102122001Y-96148000D03*
D14*
X112022000Y-99848000D03*
X109522000Y-99848000D03*
X107522000Y-99848000D03*
X105022000Y-99848000D03*
%TD*%
D10*
%TO.C,C2*%
X91248000Y-105864000D03*
X91938000Y-105864000D03*
%TD*%
%TO.C,D2*%
X62683000Y-69574000D03*
X63373000Y-69574000D03*
%TD*%
%TO.C,D9*%
X65368000Y-71324000D03*
X66058000Y-71324000D03*
%TD*%
D11*
%TO.C,SW25*%
X94778000Y-64024000D03*
X101508000Y-64024000D03*
%TD*%
D10*
%TO.C,D14*%
X68053000Y-69574000D03*
X68743000Y-69574000D03*
%TD*%
D11*
%TO.C,SW8*%
X73878000Y-34774000D03*
X80608000Y-34774000D03*
%TD*%
D10*
%TO.C,C1*%
X91248000Y-104114000D03*
X91938000Y-104114000D03*
%TD*%
%TO.C,D23*%
X70738000Y-74824000D03*
X71428000Y-74824000D03*
%TD*%
D11*
%TO.C,SW7*%
X63428000Y-64024000D03*
X70158000Y-64024000D03*
%TD*%
D10*
%TO.C,D13*%
X68053000Y-67824000D03*
X68743000Y-67824000D03*
%TD*%
D11*
%TO.C,SW1*%
X81778000Y-106164000D03*
X88508000Y-106164000D03*
%TD*%
D10*
%TO.C,D8*%
X65368000Y-69574000D03*
X66058000Y-69574000D03*
%TD*%
%TO.C,D18*%
X68053000Y-76574000D03*
X68743000Y-76574000D03*
%TD*%
D15*
%TO.C,U1*%
X132528199Y-80234800D03*
X132528199Y-81834800D03*
X134128199Y-80234800D03*
X134128199Y-81834800D03*
D16*
X129890699Y-78434800D03*
X129890699Y-78834800D03*
X129890699Y-79234800D03*
X129890699Y-79634800D03*
X129890699Y-80034800D03*
X129890699Y-80434800D03*
X129890699Y-80834800D03*
X129890699Y-81234800D03*
X129890699Y-81634800D03*
X129890699Y-82034800D03*
X129890699Y-82434800D03*
X129890699Y-82834800D03*
X129890699Y-83234800D03*
X129890699Y-83634800D03*
D17*
X130728199Y-84472300D03*
X131128199Y-84472300D03*
X131528199Y-84472300D03*
X131928199Y-84472300D03*
X132328199Y-84472300D03*
X132728199Y-84472300D03*
X133128199Y-84472300D03*
X133528199Y-84472300D03*
X133928199Y-84472300D03*
X134328199Y-84472300D03*
X134728199Y-84472300D03*
X135128199Y-84472300D03*
X135528199Y-84472300D03*
X135928199Y-84472300D03*
D16*
X136765699Y-83634800D03*
X136765699Y-83234800D03*
X136765699Y-82834800D03*
X136765699Y-82434800D03*
X136765699Y-82034800D03*
X136765699Y-81634800D03*
X136765699Y-81234800D03*
X136765699Y-80834800D03*
X136765699Y-80434800D03*
X136765699Y-80034800D03*
X136765699Y-79634800D03*
X136765699Y-79234800D03*
X136765699Y-78834800D03*
X136765699Y-78434800D03*
D17*
X135928199Y-77597300D03*
X135528199Y-77597300D03*
X135128199Y-77597300D03*
X134728199Y-77597300D03*
X134328199Y-77597300D03*
X133928199Y-77597300D03*
X133528199Y-77597300D03*
X133128199Y-77597300D03*
X132728199Y-77597300D03*
X132328199Y-77597300D03*
X131928199Y-77597300D03*
X131528199Y-77597300D03*
X131128199Y-77597300D03*
X130728199Y-77597300D03*
%TD*%
D11*
%TO.C,SW13*%
X73878000Y-64024000D03*
X80608000Y-64024000D03*
%TD*%
%TO.C,SW22*%
X94778000Y-46474000D03*
X101508000Y-46474000D03*
%TD*%
D10*
%TO.C,D24*%
X70738000Y-76574000D03*
X71428000Y-76574000D03*
%TD*%
%TO.C,D1*%
X62683000Y-67824000D03*
X63373000Y-67824000D03*
%TD*%
D18*
%TO.C,X1*%
X138727999Y-81924000D03*
X138727999Y-84124000D03*
X140328001Y-84124000D03*
X140328001Y-81924000D03*
%TD*%
D11*
%TO.C,SW6*%
X63428000Y-58174000D03*
X70158000Y-58174000D03*
%TD*%
%TO.C,SW5*%
X63428000Y-52324000D03*
X70158000Y-52324000D03*
%TD*%
D10*
%TO.C,D21*%
X70738000Y-71324000D03*
X71428000Y-71324000D03*
%TD*%
M02*
