%TF.GenerationSoftware,KiCad,Pcbnew,8.0.3*%
%TF.CreationDate,2024-09-04T14:48:35-07:00*%
%TF.ProjectId,Calculator,43616c63-756c-4617-946f-722e6b696361,rev?*%
%TF.SameCoordinates,Original*%
%TF.FileFunction,Legend,Top*%
%TF.FilePolarity,Positive*%
%FSLAX46Y46*%
G04 Gerber Fmt 4.6, Leading zero omitted, Abs format (unit mm)*
G04 Created by KiCad (PCBNEW 8.0.3) date 2024-09-04 14:48:35*
%MOMM*%
%LPD*%
G01*
G04 APERTURE LIST*
%ADD10C,0.150000*%
%ADD11C,0.100000*%
%ADD12C,0.120000*%
%ADD13C,0.152400*%
G04 APERTURE END LIST*
D10*
X67183714Y-72478819D02*
X67183714Y-71478819D01*
X67183714Y-71478819D02*
X67421809Y-71478819D01*
X67421809Y-71478819D02*
X67564666Y-71526438D01*
X67564666Y-71526438D02*
X67659904Y-71621676D01*
X67659904Y-71621676D02*
X67707523Y-71716914D01*
X67707523Y-71716914D02*
X67755142Y-71907390D01*
X67755142Y-71907390D02*
X67755142Y-72050247D01*
X67755142Y-72050247D02*
X67707523Y-72240723D01*
X67707523Y-72240723D02*
X67659904Y-72335961D01*
X67659904Y-72335961D02*
X67564666Y-72431200D01*
X67564666Y-72431200D02*
X67421809Y-72478819D01*
X67421809Y-72478819D02*
X67183714Y-72478819D01*
X68707523Y-72478819D02*
X68136095Y-72478819D01*
X68421809Y-72478819D02*
X68421809Y-71478819D01*
X68421809Y-71478819D02*
X68326571Y-71621676D01*
X68326571Y-71621676D02*
X68231333Y-71716914D01*
X68231333Y-71716914D02*
X68136095Y-71764533D01*
X69564666Y-71478819D02*
X69374190Y-71478819D01*
X69374190Y-71478819D02*
X69278952Y-71526438D01*
X69278952Y-71526438D02*
X69231333Y-71574057D01*
X69231333Y-71574057D02*
X69136095Y-71716914D01*
X69136095Y-71716914D02*
X69088476Y-71907390D01*
X69088476Y-71907390D02*
X69088476Y-72288342D01*
X69088476Y-72288342D02*
X69136095Y-72383580D01*
X69136095Y-72383580D02*
X69183714Y-72431200D01*
X69183714Y-72431200D02*
X69278952Y-72478819D01*
X69278952Y-72478819D02*
X69469428Y-72478819D01*
X69469428Y-72478819D02*
X69564666Y-72431200D01*
X69564666Y-72431200D02*
X69612285Y-72383580D01*
X69612285Y-72383580D02*
X69659904Y-72288342D01*
X69659904Y-72288342D02*
X69659904Y-72050247D01*
X69659904Y-72050247D02*
X69612285Y-71955009D01*
X69612285Y-71955009D02*
X69564666Y-71907390D01*
X69564666Y-71907390D02*
X69469428Y-71859771D01*
X69469428Y-71859771D02*
X69278952Y-71859771D01*
X69278952Y-71859771D02*
X69183714Y-71907390D01*
X69183714Y-71907390D02*
X69136095Y-71955009D01*
X69136095Y-71955009D02*
X69088476Y-72050247D01*
X85883476Y-55471200D02*
X86026333Y-55518819D01*
X86026333Y-55518819D02*
X86264428Y-55518819D01*
X86264428Y-55518819D02*
X86359666Y-55471200D01*
X86359666Y-55471200D02*
X86407285Y-55423580D01*
X86407285Y-55423580D02*
X86454904Y-55328342D01*
X86454904Y-55328342D02*
X86454904Y-55233104D01*
X86454904Y-55233104D02*
X86407285Y-55137866D01*
X86407285Y-55137866D02*
X86359666Y-55090247D01*
X86359666Y-55090247D02*
X86264428Y-55042628D01*
X86264428Y-55042628D02*
X86073952Y-54995009D01*
X86073952Y-54995009D02*
X85978714Y-54947390D01*
X85978714Y-54947390D02*
X85931095Y-54899771D01*
X85931095Y-54899771D02*
X85883476Y-54804533D01*
X85883476Y-54804533D02*
X85883476Y-54709295D01*
X85883476Y-54709295D02*
X85931095Y-54614057D01*
X85931095Y-54614057D02*
X85978714Y-54566438D01*
X85978714Y-54566438D02*
X86073952Y-54518819D01*
X86073952Y-54518819D02*
X86312047Y-54518819D01*
X86312047Y-54518819D02*
X86454904Y-54566438D01*
X86788238Y-54518819D02*
X87026333Y-55518819D01*
X87026333Y-55518819D02*
X87216809Y-54804533D01*
X87216809Y-54804533D02*
X87407285Y-55518819D01*
X87407285Y-55518819D02*
X87645381Y-54518819D01*
X88550142Y-55518819D02*
X87978714Y-55518819D01*
X88264428Y-55518819D02*
X88264428Y-54518819D01*
X88264428Y-54518819D02*
X88169190Y-54661676D01*
X88169190Y-54661676D02*
X88073952Y-54756914D01*
X88073952Y-54756914D02*
X87978714Y-54804533D01*
X89121571Y-54947390D02*
X89026333Y-54899771D01*
X89026333Y-54899771D02*
X88978714Y-54852152D01*
X88978714Y-54852152D02*
X88931095Y-54756914D01*
X88931095Y-54756914D02*
X88931095Y-54709295D01*
X88931095Y-54709295D02*
X88978714Y-54614057D01*
X88978714Y-54614057D02*
X89026333Y-54566438D01*
X89026333Y-54566438D02*
X89121571Y-54518819D01*
X89121571Y-54518819D02*
X89312047Y-54518819D01*
X89312047Y-54518819D02*
X89407285Y-54566438D01*
X89407285Y-54566438D02*
X89454904Y-54614057D01*
X89454904Y-54614057D02*
X89502523Y-54709295D01*
X89502523Y-54709295D02*
X89502523Y-54756914D01*
X89502523Y-54756914D02*
X89454904Y-54852152D01*
X89454904Y-54852152D02*
X89407285Y-54899771D01*
X89407285Y-54899771D02*
X89312047Y-54947390D01*
X89312047Y-54947390D02*
X89121571Y-54947390D01*
X89121571Y-54947390D02*
X89026333Y-54995009D01*
X89026333Y-54995009D02*
X88978714Y-55042628D01*
X88978714Y-55042628D02*
X88931095Y-55137866D01*
X88931095Y-55137866D02*
X88931095Y-55328342D01*
X88931095Y-55328342D02*
X88978714Y-55423580D01*
X88978714Y-55423580D02*
X89026333Y-55471200D01*
X89026333Y-55471200D02*
X89121571Y-55518819D01*
X89121571Y-55518819D02*
X89312047Y-55518819D01*
X89312047Y-55518819D02*
X89407285Y-55471200D01*
X89407285Y-55471200D02*
X89454904Y-55423580D01*
X89454904Y-55423580D02*
X89502523Y-55328342D01*
X89502523Y-55328342D02*
X89502523Y-55137866D01*
X89502523Y-55137866D02*
X89454904Y-55042628D01*
X89454904Y-55042628D02*
X89407285Y-54995009D01*
X89407285Y-54995009D02*
X89312047Y-54947390D01*
X85883476Y-49621200D02*
X86026333Y-49668819D01*
X86026333Y-49668819D02*
X86264428Y-49668819D01*
X86264428Y-49668819D02*
X86359666Y-49621200D01*
X86359666Y-49621200D02*
X86407285Y-49573580D01*
X86407285Y-49573580D02*
X86454904Y-49478342D01*
X86454904Y-49478342D02*
X86454904Y-49383104D01*
X86454904Y-49383104D02*
X86407285Y-49287866D01*
X86407285Y-49287866D02*
X86359666Y-49240247D01*
X86359666Y-49240247D02*
X86264428Y-49192628D01*
X86264428Y-49192628D02*
X86073952Y-49145009D01*
X86073952Y-49145009D02*
X85978714Y-49097390D01*
X85978714Y-49097390D02*
X85931095Y-49049771D01*
X85931095Y-49049771D02*
X85883476Y-48954533D01*
X85883476Y-48954533D02*
X85883476Y-48859295D01*
X85883476Y-48859295D02*
X85931095Y-48764057D01*
X85931095Y-48764057D02*
X85978714Y-48716438D01*
X85978714Y-48716438D02*
X86073952Y-48668819D01*
X86073952Y-48668819D02*
X86312047Y-48668819D01*
X86312047Y-48668819D02*
X86454904Y-48716438D01*
X86788238Y-48668819D02*
X87026333Y-49668819D01*
X87026333Y-49668819D02*
X87216809Y-48954533D01*
X87216809Y-48954533D02*
X87407285Y-49668819D01*
X87407285Y-49668819D02*
X87645381Y-48668819D01*
X88550142Y-49668819D02*
X87978714Y-49668819D01*
X88264428Y-49668819D02*
X88264428Y-48668819D01*
X88264428Y-48668819D02*
X88169190Y-48811676D01*
X88169190Y-48811676D02*
X88073952Y-48906914D01*
X88073952Y-48906914D02*
X87978714Y-48954533D01*
X88883476Y-48668819D02*
X89550142Y-48668819D01*
X89550142Y-48668819D02*
X89121571Y-49668819D01*
X64498714Y-75978819D02*
X64498714Y-74978819D01*
X64498714Y-74978819D02*
X64736809Y-74978819D01*
X64736809Y-74978819D02*
X64879666Y-75026438D01*
X64879666Y-75026438D02*
X64974904Y-75121676D01*
X64974904Y-75121676D02*
X65022523Y-75216914D01*
X65022523Y-75216914D02*
X65070142Y-75407390D01*
X65070142Y-75407390D02*
X65070142Y-75550247D01*
X65070142Y-75550247D02*
X65022523Y-75740723D01*
X65022523Y-75740723D02*
X64974904Y-75835961D01*
X64974904Y-75835961D02*
X64879666Y-75931200D01*
X64879666Y-75931200D02*
X64736809Y-75978819D01*
X64736809Y-75978819D02*
X64498714Y-75978819D01*
X66022523Y-75978819D02*
X65451095Y-75978819D01*
X65736809Y-75978819D02*
X65736809Y-74978819D01*
X65736809Y-74978819D02*
X65641571Y-75121676D01*
X65641571Y-75121676D02*
X65546333Y-75216914D01*
X65546333Y-75216914D02*
X65451095Y-75264533D01*
X66403476Y-75074057D02*
X66451095Y-75026438D01*
X66451095Y-75026438D02*
X66546333Y-74978819D01*
X66546333Y-74978819D02*
X66784428Y-74978819D01*
X66784428Y-74978819D02*
X66879666Y-75026438D01*
X66879666Y-75026438D02*
X66927285Y-75074057D01*
X66927285Y-75074057D02*
X66974904Y-75169295D01*
X66974904Y-75169295D02*
X66974904Y-75264533D01*
X66974904Y-75264533D02*
X66927285Y-75407390D01*
X66927285Y-75407390D02*
X66355857Y-75978819D01*
X66355857Y-75978819D02*
X66974904Y-75978819D01*
X64974905Y-67228819D02*
X64974905Y-66228819D01*
X64974905Y-66228819D02*
X65213000Y-66228819D01*
X65213000Y-66228819D02*
X65355857Y-66276438D01*
X65355857Y-66276438D02*
X65451095Y-66371676D01*
X65451095Y-66371676D02*
X65498714Y-66466914D01*
X65498714Y-66466914D02*
X65546333Y-66657390D01*
X65546333Y-66657390D02*
X65546333Y-66800247D01*
X65546333Y-66800247D02*
X65498714Y-66990723D01*
X65498714Y-66990723D02*
X65451095Y-67085961D01*
X65451095Y-67085961D02*
X65355857Y-67181200D01*
X65355857Y-67181200D02*
X65213000Y-67228819D01*
X65213000Y-67228819D02*
X64974905Y-67228819D01*
X65879667Y-66228819D02*
X66546333Y-66228819D01*
X66546333Y-66228819D02*
X66117762Y-67228819D01*
X96333476Y-49621200D02*
X96476333Y-49668819D01*
X96476333Y-49668819D02*
X96714428Y-49668819D01*
X96714428Y-49668819D02*
X96809666Y-49621200D01*
X96809666Y-49621200D02*
X96857285Y-49573580D01*
X96857285Y-49573580D02*
X96904904Y-49478342D01*
X96904904Y-49478342D02*
X96904904Y-49383104D01*
X96904904Y-49383104D02*
X96857285Y-49287866D01*
X96857285Y-49287866D02*
X96809666Y-49240247D01*
X96809666Y-49240247D02*
X96714428Y-49192628D01*
X96714428Y-49192628D02*
X96523952Y-49145009D01*
X96523952Y-49145009D02*
X96428714Y-49097390D01*
X96428714Y-49097390D02*
X96381095Y-49049771D01*
X96381095Y-49049771D02*
X96333476Y-48954533D01*
X96333476Y-48954533D02*
X96333476Y-48859295D01*
X96333476Y-48859295D02*
X96381095Y-48764057D01*
X96381095Y-48764057D02*
X96428714Y-48716438D01*
X96428714Y-48716438D02*
X96523952Y-48668819D01*
X96523952Y-48668819D02*
X96762047Y-48668819D01*
X96762047Y-48668819D02*
X96904904Y-48716438D01*
X97238238Y-48668819D02*
X97476333Y-49668819D01*
X97476333Y-49668819D02*
X97666809Y-48954533D01*
X97666809Y-48954533D02*
X97857285Y-49668819D01*
X97857285Y-49668819D02*
X98095381Y-48668819D01*
X98428714Y-48764057D02*
X98476333Y-48716438D01*
X98476333Y-48716438D02*
X98571571Y-48668819D01*
X98571571Y-48668819D02*
X98809666Y-48668819D01*
X98809666Y-48668819D02*
X98904904Y-48716438D01*
X98904904Y-48716438D02*
X98952523Y-48764057D01*
X98952523Y-48764057D02*
X99000142Y-48859295D01*
X99000142Y-48859295D02*
X99000142Y-48954533D01*
X99000142Y-48954533D02*
X98952523Y-49097390D01*
X98952523Y-49097390D02*
X98381095Y-49668819D01*
X98381095Y-49668819D02*
X99000142Y-49668819D01*
X99333476Y-48668819D02*
X99952523Y-48668819D01*
X99952523Y-48668819D02*
X99619190Y-49049771D01*
X99619190Y-49049771D02*
X99762047Y-49049771D01*
X99762047Y-49049771D02*
X99857285Y-49097390D01*
X99857285Y-49097390D02*
X99904904Y-49145009D01*
X99904904Y-49145009D02*
X99952523Y-49240247D01*
X99952523Y-49240247D02*
X99952523Y-49478342D01*
X99952523Y-49478342D02*
X99904904Y-49573580D01*
X99904904Y-49573580D02*
X99857285Y-49621200D01*
X99857285Y-49621200D02*
X99762047Y-49668819D01*
X99762047Y-49668819D02*
X99476333Y-49668819D01*
X99476333Y-49668819D02*
X99381095Y-49621200D01*
X99381095Y-49621200D02*
X99333476Y-49573580D01*
X70576333Y-94728819D02*
X70243000Y-94252628D01*
X70004905Y-94728819D02*
X70004905Y-93728819D01*
X70004905Y-93728819D02*
X70385857Y-93728819D01*
X70385857Y-93728819D02*
X70481095Y-93776438D01*
X70481095Y-93776438D02*
X70528714Y-93824057D01*
X70528714Y-93824057D02*
X70576333Y-93919295D01*
X70576333Y-93919295D02*
X70576333Y-94062152D01*
X70576333Y-94062152D02*
X70528714Y-94157390D01*
X70528714Y-94157390D02*
X70481095Y-94205009D01*
X70481095Y-94205009D02*
X70385857Y-94252628D01*
X70385857Y-94252628D02*
X70004905Y-94252628D01*
X71528714Y-94728819D02*
X70957286Y-94728819D01*
X71243000Y-94728819D02*
X71243000Y-93728819D01*
X71243000Y-93728819D02*
X71147762Y-93871676D01*
X71147762Y-93871676D02*
X71052524Y-93966914D01*
X71052524Y-93966914D02*
X70957286Y-94014533D01*
X85883476Y-43771200D02*
X86026333Y-43818819D01*
X86026333Y-43818819D02*
X86264428Y-43818819D01*
X86264428Y-43818819D02*
X86359666Y-43771200D01*
X86359666Y-43771200D02*
X86407285Y-43723580D01*
X86407285Y-43723580D02*
X86454904Y-43628342D01*
X86454904Y-43628342D02*
X86454904Y-43533104D01*
X86454904Y-43533104D02*
X86407285Y-43437866D01*
X86407285Y-43437866D02*
X86359666Y-43390247D01*
X86359666Y-43390247D02*
X86264428Y-43342628D01*
X86264428Y-43342628D02*
X86073952Y-43295009D01*
X86073952Y-43295009D02*
X85978714Y-43247390D01*
X85978714Y-43247390D02*
X85931095Y-43199771D01*
X85931095Y-43199771D02*
X85883476Y-43104533D01*
X85883476Y-43104533D02*
X85883476Y-43009295D01*
X85883476Y-43009295D02*
X85931095Y-42914057D01*
X85931095Y-42914057D02*
X85978714Y-42866438D01*
X85978714Y-42866438D02*
X86073952Y-42818819D01*
X86073952Y-42818819D02*
X86312047Y-42818819D01*
X86312047Y-42818819D02*
X86454904Y-42866438D01*
X86788238Y-42818819D02*
X87026333Y-43818819D01*
X87026333Y-43818819D02*
X87216809Y-43104533D01*
X87216809Y-43104533D02*
X87407285Y-43818819D01*
X87407285Y-43818819D02*
X87645381Y-42818819D01*
X88550142Y-43818819D02*
X87978714Y-43818819D01*
X88264428Y-43818819D02*
X88264428Y-42818819D01*
X88264428Y-42818819D02*
X88169190Y-42961676D01*
X88169190Y-42961676D02*
X88073952Y-43056914D01*
X88073952Y-43056914D02*
X87978714Y-43104533D01*
X89407285Y-42818819D02*
X89216809Y-42818819D01*
X89216809Y-42818819D02*
X89121571Y-42866438D01*
X89121571Y-42866438D02*
X89073952Y-42914057D01*
X89073952Y-42914057D02*
X88978714Y-43056914D01*
X88978714Y-43056914D02*
X88931095Y-43247390D01*
X88931095Y-43247390D02*
X88931095Y-43628342D01*
X88931095Y-43628342D02*
X88978714Y-43723580D01*
X88978714Y-43723580D02*
X89026333Y-43771200D01*
X89026333Y-43771200D02*
X89121571Y-43818819D01*
X89121571Y-43818819D02*
X89312047Y-43818819D01*
X89312047Y-43818819D02*
X89407285Y-43771200D01*
X89407285Y-43771200D02*
X89454904Y-43723580D01*
X89454904Y-43723580D02*
X89502523Y-43628342D01*
X89502523Y-43628342D02*
X89502523Y-43390247D01*
X89502523Y-43390247D02*
X89454904Y-43295009D01*
X89454904Y-43295009D02*
X89407285Y-43247390D01*
X89407285Y-43247390D02*
X89312047Y-43199771D01*
X89312047Y-43199771D02*
X89121571Y-43199771D01*
X89121571Y-43199771D02*
X89026333Y-43247390D01*
X89026333Y-43247390D02*
X88978714Y-43295009D01*
X88978714Y-43295009D02*
X88931095Y-43390247D01*
X96333476Y-32071200D02*
X96476333Y-32118819D01*
X96476333Y-32118819D02*
X96714428Y-32118819D01*
X96714428Y-32118819D02*
X96809666Y-32071200D01*
X96809666Y-32071200D02*
X96857285Y-32023580D01*
X96857285Y-32023580D02*
X96904904Y-31928342D01*
X96904904Y-31928342D02*
X96904904Y-31833104D01*
X96904904Y-31833104D02*
X96857285Y-31737866D01*
X96857285Y-31737866D02*
X96809666Y-31690247D01*
X96809666Y-31690247D02*
X96714428Y-31642628D01*
X96714428Y-31642628D02*
X96523952Y-31595009D01*
X96523952Y-31595009D02*
X96428714Y-31547390D01*
X96428714Y-31547390D02*
X96381095Y-31499771D01*
X96381095Y-31499771D02*
X96333476Y-31404533D01*
X96333476Y-31404533D02*
X96333476Y-31309295D01*
X96333476Y-31309295D02*
X96381095Y-31214057D01*
X96381095Y-31214057D02*
X96428714Y-31166438D01*
X96428714Y-31166438D02*
X96523952Y-31118819D01*
X96523952Y-31118819D02*
X96762047Y-31118819D01*
X96762047Y-31118819D02*
X96904904Y-31166438D01*
X97238238Y-31118819D02*
X97476333Y-32118819D01*
X97476333Y-32118819D02*
X97666809Y-31404533D01*
X97666809Y-31404533D02*
X97857285Y-32118819D01*
X97857285Y-32118819D02*
X98095381Y-31118819D01*
X98428714Y-31214057D02*
X98476333Y-31166438D01*
X98476333Y-31166438D02*
X98571571Y-31118819D01*
X98571571Y-31118819D02*
X98809666Y-31118819D01*
X98809666Y-31118819D02*
X98904904Y-31166438D01*
X98904904Y-31166438D02*
X98952523Y-31214057D01*
X98952523Y-31214057D02*
X99000142Y-31309295D01*
X99000142Y-31309295D02*
X99000142Y-31404533D01*
X99000142Y-31404533D02*
X98952523Y-31547390D01*
X98952523Y-31547390D02*
X98381095Y-32118819D01*
X98381095Y-32118819D02*
X99000142Y-32118819D01*
X99619190Y-31118819D02*
X99714428Y-31118819D01*
X99714428Y-31118819D02*
X99809666Y-31166438D01*
X99809666Y-31166438D02*
X99857285Y-31214057D01*
X99857285Y-31214057D02*
X99904904Y-31309295D01*
X99904904Y-31309295D02*
X99952523Y-31499771D01*
X99952523Y-31499771D02*
X99952523Y-31737866D01*
X99952523Y-31737866D02*
X99904904Y-31928342D01*
X99904904Y-31928342D02*
X99857285Y-32023580D01*
X99857285Y-32023580D02*
X99809666Y-32071200D01*
X99809666Y-32071200D02*
X99714428Y-32118819D01*
X99714428Y-32118819D02*
X99619190Y-32118819D01*
X99619190Y-32118819D02*
X99523952Y-32071200D01*
X99523952Y-32071200D02*
X99476333Y-32023580D01*
X99476333Y-32023580D02*
X99428714Y-31928342D01*
X99428714Y-31928342D02*
X99381095Y-31737866D01*
X99381095Y-31737866D02*
X99381095Y-31499771D01*
X99381095Y-31499771D02*
X99428714Y-31309295D01*
X99428714Y-31309295D02*
X99476333Y-31214057D01*
X99476333Y-31214057D02*
X99523952Y-31166438D01*
X99523952Y-31166438D02*
X99619190Y-31118819D01*
X62289905Y-70728819D02*
X62289905Y-69728819D01*
X62289905Y-69728819D02*
X62528000Y-69728819D01*
X62528000Y-69728819D02*
X62670857Y-69776438D01*
X62670857Y-69776438D02*
X62766095Y-69871676D01*
X62766095Y-69871676D02*
X62813714Y-69966914D01*
X62813714Y-69966914D02*
X62861333Y-70157390D01*
X62861333Y-70157390D02*
X62861333Y-70300247D01*
X62861333Y-70300247D02*
X62813714Y-70490723D01*
X62813714Y-70490723D02*
X62766095Y-70585961D01*
X62766095Y-70585961D02*
X62670857Y-70681200D01*
X62670857Y-70681200D02*
X62528000Y-70728819D01*
X62528000Y-70728819D02*
X62289905Y-70728819D01*
X63194667Y-69728819D02*
X63813714Y-69728819D01*
X63813714Y-69728819D02*
X63480381Y-70109771D01*
X63480381Y-70109771D02*
X63623238Y-70109771D01*
X63623238Y-70109771D02*
X63718476Y-70157390D01*
X63718476Y-70157390D02*
X63766095Y-70205009D01*
X63766095Y-70205009D02*
X63813714Y-70300247D01*
X63813714Y-70300247D02*
X63813714Y-70538342D01*
X63813714Y-70538342D02*
X63766095Y-70633580D01*
X63766095Y-70633580D02*
X63718476Y-70681200D01*
X63718476Y-70681200D02*
X63623238Y-70728819D01*
X63623238Y-70728819D02*
X63337524Y-70728819D01*
X63337524Y-70728819D02*
X63242286Y-70681200D01*
X63242286Y-70681200D02*
X63194667Y-70633580D01*
X69868714Y-68978819D02*
X69868714Y-67978819D01*
X69868714Y-67978819D02*
X70106809Y-67978819D01*
X70106809Y-67978819D02*
X70249666Y-68026438D01*
X70249666Y-68026438D02*
X70344904Y-68121676D01*
X70344904Y-68121676D02*
X70392523Y-68216914D01*
X70392523Y-68216914D02*
X70440142Y-68407390D01*
X70440142Y-68407390D02*
X70440142Y-68550247D01*
X70440142Y-68550247D02*
X70392523Y-68740723D01*
X70392523Y-68740723D02*
X70344904Y-68835961D01*
X70344904Y-68835961D02*
X70249666Y-68931200D01*
X70249666Y-68931200D02*
X70106809Y-68978819D01*
X70106809Y-68978819D02*
X69868714Y-68978819D01*
X70821095Y-68074057D02*
X70868714Y-68026438D01*
X70868714Y-68026438D02*
X70963952Y-67978819D01*
X70963952Y-67978819D02*
X71202047Y-67978819D01*
X71202047Y-67978819D02*
X71297285Y-68026438D01*
X71297285Y-68026438D02*
X71344904Y-68074057D01*
X71344904Y-68074057D02*
X71392523Y-68169295D01*
X71392523Y-68169295D02*
X71392523Y-68264533D01*
X71392523Y-68264533D02*
X71344904Y-68407390D01*
X71344904Y-68407390D02*
X70773476Y-68978819D01*
X70773476Y-68978819D02*
X71392523Y-68978819D01*
X72011571Y-67978819D02*
X72106809Y-67978819D01*
X72106809Y-67978819D02*
X72202047Y-68026438D01*
X72202047Y-68026438D02*
X72249666Y-68074057D01*
X72249666Y-68074057D02*
X72297285Y-68169295D01*
X72297285Y-68169295D02*
X72344904Y-68359771D01*
X72344904Y-68359771D02*
X72344904Y-68597866D01*
X72344904Y-68597866D02*
X72297285Y-68788342D01*
X72297285Y-68788342D02*
X72249666Y-68883580D01*
X72249666Y-68883580D02*
X72202047Y-68931200D01*
X72202047Y-68931200D02*
X72106809Y-68978819D01*
X72106809Y-68978819D02*
X72011571Y-68978819D01*
X72011571Y-68978819D02*
X71916333Y-68931200D01*
X71916333Y-68931200D02*
X71868714Y-68883580D01*
X71868714Y-68883580D02*
X71821095Y-68788342D01*
X71821095Y-68788342D02*
X71773476Y-68597866D01*
X71773476Y-68597866D02*
X71773476Y-68359771D01*
X71773476Y-68359771D02*
X71821095Y-68169295D01*
X71821095Y-68169295D02*
X71868714Y-68074057D01*
X71868714Y-68074057D02*
X71916333Y-68026438D01*
X71916333Y-68026438D02*
X72011571Y-67978819D01*
X62289905Y-74228819D02*
X62289905Y-73228819D01*
X62289905Y-73228819D02*
X62528000Y-73228819D01*
X62528000Y-73228819D02*
X62670857Y-73276438D01*
X62670857Y-73276438D02*
X62766095Y-73371676D01*
X62766095Y-73371676D02*
X62813714Y-73466914D01*
X62813714Y-73466914D02*
X62861333Y-73657390D01*
X62861333Y-73657390D02*
X62861333Y-73800247D01*
X62861333Y-73800247D02*
X62813714Y-73990723D01*
X62813714Y-73990723D02*
X62766095Y-74085961D01*
X62766095Y-74085961D02*
X62670857Y-74181200D01*
X62670857Y-74181200D02*
X62528000Y-74228819D01*
X62528000Y-74228819D02*
X62289905Y-74228819D01*
X63766095Y-73228819D02*
X63289905Y-73228819D01*
X63289905Y-73228819D02*
X63242286Y-73705009D01*
X63242286Y-73705009D02*
X63289905Y-73657390D01*
X63289905Y-73657390D02*
X63385143Y-73609771D01*
X63385143Y-73609771D02*
X63623238Y-73609771D01*
X63623238Y-73609771D02*
X63718476Y-73657390D01*
X63718476Y-73657390D02*
X63766095Y-73705009D01*
X63766095Y-73705009D02*
X63813714Y-73800247D01*
X63813714Y-73800247D02*
X63813714Y-74038342D01*
X63813714Y-74038342D02*
X63766095Y-74133580D01*
X63766095Y-74133580D02*
X63718476Y-74181200D01*
X63718476Y-74181200D02*
X63623238Y-74228819D01*
X63623238Y-74228819D02*
X63385143Y-74228819D01*
X63385143Y-74228819D02*
X63289905Y-74181200D01*
X63289905Y-74181200D02*
X63242286Y-74133580D01*
X96333476Y-37921200D02*
X96476333Y-37968819D01*
X96476333Y-37968819D02*
X96714428Y-37968819D01*
X96714428Y-37968819D02*
X96809666Y-37921200D01*
X96809666Y-37921200D02*
X96857285Y-37873580D01*
X96857285Y-37873580D02*
X96904904Y-37778342D01*
X96904904Y-37778342D02*
X96904904Y-37683104D01*
X96904904Y-37683104D02*
X96857285Y-37587866D01*
X96857285Y-37587866D02*
X96809666Y-37540247D01*
X96809666Y-37540247D02*
X96714428Y-37492628D01*
X96714428Y-37492628D02*
X96523952Y-37445009D01*
X96523952Y-37445009D02*
X96428714Y-37397390D01*
X96428714Y-37397390D02*
X96381095Y-37349771D01*
X96381095Y-37349771D02*
X96333476Y-37254533D01*
X96333476Y-37254533D02*
X96333476Y-37159295D01*
X96333476Y-37159295D02*
X96381095Y-37064057D01*
X96381095Y-37064057D02*
X96428714Y-37016438D01*
X96428714Y-37016438D02*
X96523952Y-36968819D01*
X96523952Y-36968819D02*
X96762047Y-36968819D01*
X96762047Y-36968819D02*
X96904904Y-37016438D01*
X97238238Y-36968819D02*
X97476333Y-37968819D01*
X97476333Y-37968819D02*
X97666809Y-37254533D01*
X97666809Y-37254533D02*
X97857285Y-37968819D01*
X97857285Y-37968819D02*
X98095381Y-36968819D01*
X98428714Y-37064057D02*
X98476333Y-37016438D01*
X98476333Y-37016438D02*
X98571571Y-36968819D01*
X98571571Y-36968819D02*
X98809666Y-36968819D01*
X98809666Y-36968819D02*
X98904904Y-37016438D01*
X98904904Y-37016438D02*
X98952523Y-37064057D01*
X98952523Y-37064057D02*
X99000142Y-37159295D01*
X99000142Y-37159295D02*
X99000142Y-37254533D01*
X99000142Y-37254533D02*
X98952523Y-37397390D01*
X98952523Y-37397390D02*
X98381095Y-37968819D01*
X98381095Y-37968819D02*
X99000142Y-37968819D01*
X99952523Y-37968819D02*
X99381095Y-37968819D01*
X99666809Y-37968819D02*
X99666809Y-36968819D01*
X99666809Y-36968819D02*
X99571571Y-37111676D01*
X99571571Y-37111676D02*
X99476333Y-37206914D01*
X99476333Y-37206914D02*
X99381095Y-37254533D01*
X67183714Y-70728819D02*
X67183714Y-69728819D01*
X67183714Y-69728819D02*
X67421809Y-69728819D01*
X67421809Y-69728819D02*
X67564666Y-69776438D01*
X67564666Y-69776438D02*
X67659904Y-69871676D01*
X67659904Y-69871676D02*
X67707523Y-69966914D01*
X67707523Y-69966914D02*
X67755142Y-70157390D01*
X67755142Y-70157390D02*
X67755142Y-70300247D01*
X67755142Y-70300247D02*
X67707523Y-70490723D01*
X67707523Y-70490723D02*
X67659904Y-70585961D01*
X67659904Y-70585961D02*
X67564666Y-70681200D01*
X67564666Y-70681200D02*
X67421809Y-70728819D01*
X67421809Y-70728819D02*
X67183714Y-70728819D01*
X68707523Y-70728819D02*
X68136095Y-70728819D01*
X68421809Y-70728819D02*
X68421809Y-69728819D01*
X68421809Y-69728819D02*
X68326571Y-69871676D01*
X68326571Y-69871676D02*
X68231333Y-69966914D01*
X68231333Y-69966914D02*
X68136095Y-70014533D01*
X69612285Y-69728819D02*
X69136095Y-69728819D01*
X69136095Y-69728819D02*
X69088476Y-70205009D01*
X69088476Y-70205009D02*
X69136095Y-70157390D01*
X69136095Y-70157390D02*
X69231333Y-70109771D01*
X69231333Y-70109771D02*
X69469428Y-70109771D01*
X69469428Y-70109771D02*
X69564666Y-70157390D01*
X69564666Y-70157390D02*
X69612285Y-70205009D01*
X69612285Y-70205009D02*
X69659904Y-70300247D01*
X69659904Y-70300247D02*
X69659904Y-70538342D01*
X69659904Y-70538342D02*
X69612285Y-70633580D01*
X69612285Y-70633580D02*
X69564666Y-70681200D01*
X69564666Y-70681200D02*
X69469428Y-70728819D01*
X69469428Y-70728819D02*
X69231333Y-70728819D01*
X69231333Y-70728819D02*
X69136095Y-70681200D01*
X69136095Y-70681200D02*
X69088476Y-70633580D01*
X69868714Y-67228819D02*
X69868714Y-66228819D01*
X69868714Y-66228819D02*
X70106809Y-66228819D01*
X70106809Y-66228819D02*
X70249666Y-66276438D01*
X70249666Y-66276438D02*
X70344904Y-66371676D01*
X70344904Y-66371676D02*
X70392523Y-66466914D01*
X70392523Y-66466914D02*
X70440142Y-66657390D01*
X70440142Y-66657390D02*
X70440142Y-66800247D01*
X70440142Y-66800247D02*
X70392523Y-66990723D01*
X70392523Y-66990723D02*
X70344904Y-67085961D01*
X70344904Y-67085961D02*
X70249666Y-67181200D01*
X70249666Y-67181200D02*
X70106809Y-67228819D01*
X70106809Y-67228819D02*
X69868714Y-67228819D01*
X71392523Y-67228819D02*
X70821095Y-67228819D01*
X71106809Y-67228819D02*
X71106809Y-66228819D01*
X71106809Y-66228819D02*
X71011571Y-66371676D01*
X71011571Y-66371676D02*
X70916333Y-66466914D01*
X70916333Y-66466914D02*
X70821095Y-66514533D01*
X71868714Y-67228819D02*
X72059190Y-67228819D01*
X72059190Y-67228819D02*
X72154428Y-67181200D01*
X72154428Y-67181200D02*
X72202047Y-67133580D01*
X72202047Y-67133580D02*
X72297285Y-66990723D01*
X72297285Y-66990723D02*
X72344904Y-66800247D01*
X72344904Y-66800247D02*
X72344904Y-66419295D01*
X72344904Y-66419295D02*
X72297285Y-66324057D01*
X72297285Y-66324057D02*
X72249666Y-66276438D01*
X72249666Y-66276438D02*
X72154428Y-66228819D01*
X72154428Y-66228819D02*
X71963952Y-66228819D01*
X71963952Y-66228819D02*
X71868714Y-66276438D01*
X71868714Y-66276438D02*
X71821095Y-66324057D01*
X71821095Y-66324057D02*
X71773476Y-66419295D01*
X71773476Y-66419295D02*
X71773476Y-66657390D01*
X71773476Y-66657390D02*
X71821095Y-66752628D01*
X71821095Y-66752628D02*
X71868714Y-66800247D01*
X71868714Y-66800247D02*
X71963952Y-66847866D01*
X71963952Y-66847866D02*
X72154428Y-66847866D01*
X72154428Y-66847866D02*
X72249666Y-66800247D01*
X72249666Y-66800247D02*
X72297285Y-66752628D01*
X72297285Y-66752628D02*
X72344904Y-66657390D01*
X64498714Y-72478819D02*
X64498714Y-71478819D01*
X64498714Y-71478819D02*
X64736809Y-71478819D01*
X64736809Y-71478819D02*
X64879666Y-71526438D01*
X64879666Y-71526438D02*
X64974904Y-71621676D01*
X64974904Y-71621676D02*
X65022523Y-71716914D01*
X65022523Y-71716914D02*
X65070142Y-71907390D01*
X65070142Y-71907390D02*
X65070142Y-72050247D01*
X65070142Y-72050247D02*
X65022523Y-72240723D01*
X65022523Y-72240723D02*
X64974904Y-72335961D01*
X64974904Y-72335961D02*
X64879666Y-72431200D01*
X64879666Y-72431200D02*
X64736809Y-72478819D01*
X64736809Y-72478819D02*
X64498714Y-72478819D01*
X66022523Y-72478819D02*
X65451095Y-72478819D01*
X65736809Y-72478819D02*
X65736809Y-71478819D01*
X65736809Y-71478819D02*
X65641571Y-71621676D01*
X65641571Y-71621676D02*
X65546333Y-71716914D01*
X65546333Y-71716914D02*
X65451095Y-71764533D01*
X66641571Y-71478819D02*
X66736809Y-71478819D01*
X66736809Y-71478819D02*
X66832047Y-71526438D01*
X66832047Y-71526438D02*
X66879666Y-71574057D01*
X66879666Y-71574057D02*
X66927285Y-71669295D01*
X66927285Y-71669295D02*
X66974904Y-71859771D01*
X66974904Y-71859771D02*
X66974904Y-72097866D01*
X66974904Y-72097866D02*
X66927285Y-72288342D01*
X66927285Y-72288342D02*
X66879666Y-72383580D01*
X66879666Y-72383580D02*
X66832047Y-72431200D01*
X66832047Y-72431200D02*
X66736809Y-72478819D01*
X66736809Y-72478819D02*
X66641571Y-72478819D01*
X66641571Y-72478819D02*
X66546333Y-72431200D01*
X66546333Y-72431200D02*
X66498714Y-72383580D01*
X66498714Y-72383580D02*
X66451095Y-72288342D01*
X66451095Y-72288342D02*
X66403476Y-72097866D01*
X66403476Y-72097866D02*
X66403476Y-71859771D01*
X66403476Y-71859771D02*
X66451095Y-71669295D01*
X66451095Y-71669295D02*
X66498714Y-71574057D01*
X66498714Y-71574057D02*
X66546333Y-71526438D01*
X66546333Y-71526438D02*
X66641571Y-71478819D01*
X64498714Y-74228819D02*
X64498714Y-73228819D01*
X64498714Y-73228819D02*
X64736809Y-73228819D01*
X64736809Y-73228819D02*
X64879666Y-73276438D01*
X64879666Y-73276438D02*
X64974904Y-73371676D01*
X64974904Y-73371676D02*
X65022523Y-73466914D01*
X65022523Y-73466914D02*
X65070142Y-73657390D01*
X65070142Y-73657390D02*
X65070142Y-73800247D01*
X65070142Y-73800247D02*
X65022523Y-73990723D01*
X65022523Y-73990723D02*
X64974904Y-74085961D01*
X64974904Y-74085961D02*
X64879666Y-74181200D01*
X64879666Y-74181200D02*
X64736809Y-74228819D01*
X64736809Y-74228819D02*
X64498714Y-74228819D01*
X66022523Y-74228819D02*
X65451095Y-74228819D01*
X65736809Y-74228819D02*
X65736809Y-73228819D01*
X65736809Y-73228819D02*
X65641571Y-73371676D01*
X65641571Y-73371676D02*
X65546333Y-73466914D01*
X65546333Y-73466914D02*
X65451095Y-73514533D01*
X66974904Y-74228819D02*
X66403476Y-74228819D01*
X66689190Y-74228819D02*
X66689190Y-73228819D01*
X66689190Y-73228819D02*
X66593952Y-73371676D01*
X66593952Y-73371676D02*
X66498714Y-73466914D01*
X66498714Y-73466914D02*
X66403476Y-73514533D01*
X65459667Y-43771200D02*
X65602524Y-43818819D01*
X65602524Y-43818819D02*
X65840619Y-43818819D01*
X65840619Y-43818819D02*
X65935857Y-43771200D01*
X65935857Y-43771200D02*
X65983476Y-43723580D01*
X65983476Y-43723580D02*
X66031095Y-43628342D01*
X66031095Y-43628342D02*
X66031095Y-43533104D01*
X66031095Y-43533104D02*
X65983476Y-43437866D01*
X65983476Y-43437866D02*
X65935857Y-43390247D01*
X65935857Y-43390247D02*
X65840619Y-43342628D01*
X65840619Y-43342628D02*
X65650143Y-43295009D01*
X65650143Y-43295009D02*
X65554905Y-43247390D01*
X65554905Y-43247390D02*
X65507286Y-43199771D01*
X65507286Y-43199771D02*
X65459667Y-43104533D01*
X65459667Y-43104533D02*
X65459667Y-43009295D01*
X65459667Y-43009295D02*
X65507286Y-42914057D01*
X65507286Y-42914057D02*
X65554905Y-42866438D01*
X65554905Y-42866438D02*
X65650143Y-42818819D01*
X65650143Y-42818819D02*
X65888238Y-42818819D01*
X65888238Y-42818819D02*
X66031095Y-42866438D01*
X66364429Y-42818819D02*
X66602524Y-43818819D01*
X66602524Y-43818819D02*
X66793000Y-43104533D01*
X66793000Y-43104533D02*
X66983476Y-43818819D01*
X66983476Y-43818819D02*
X67221572Y-42818819D01*
X68031095Y-43152152D02*
X68031095Y-43818819D01*
X67793000Y-42771200D02*
X67554905Y-43485485D01*
X67554905Y-43485485D02*
X68173952Y-43485485D01*
X85883476Y-32071200D02*
X86026333Y-32118819D01*
X86026333Y-32118819D02*
X86264428Y-32118819D01*
X86264428Y-32118819D02*
X86359666Y-32071200D01*
X86359666Y-32071200D02*
X86407285Y-32023580D01*
X86407285Y-32023580D02*
X86454904Y-31928342D01*
X86454904Y-31928342D02*
X86454904Y-31833104D01*
X86454904Y-31833104D02*
X86407285Y-31737866D01*
X86407285Y-31737866D02*
X86359666Y-31690247D01*
X86359666Y-31690247D02*
X86264428Y-31642628D01*
X86264428Y-31642628D02*
X86073952Y-31595009D01*
X86073952Y-31595009D02*
X85978714Y-31547390D01*
X85978714Y-31547390D02*
X85931095Y-31499771D01*
X85931095Y-31499771D02*
X85883476Y-31404533D01*
X85883476Y-31404533D02*
X85883476Y-31309295D01*
X85883476Y-31309295D02*
X85931095Y-31214057D01*
X85931095Y-31214057D02*
X85978714Y-31166438D01*
X85978714Y-31166438D02*
X86073952Y-31118819D01*
X86073952Y-31118819D02*
X86312047Y-31118819D01*
X86312047Y-31118819D02*
X86454904Y-31166438D01*
X86788238Y-31118819D02*
X87026333Y-32118819D01*
X87026333Y-32118819D02*
X87216809Y-31404533D01*
X87216809Y-31404533D02*
X87407285Y-32118819D01*
X87407285Y-32118819D02*
X87645381Y-31118819D01*
X88550142Y-32118819D02*
X87978714Y-32118819D01*
X88264428Y-32118819D02*
X88264428Y-31118819D01*
X88264428Y-31118819D02*
X88169190Y-31261676D01*
X88169190Y-31261676D02*
X88073952Y-31356914D01*
X88073952Y-31356914D02*
X87978714Y-31404533D01*
X89407285Y-31452152D02*
X89407285Y-32118819D01*
X89169190Y-31071200D02*
X88931095Y-31785485D01*
X88931095Y-31785485D02*
X89550142Y-31785485D01*
X75433476Y-49621200D02*
X75576333Y-49668819D01*
X75576333Y-49668819D02*
X75814428Y-49668819D01*
X75814428Y-49668819D02*
X75909666Y-49621200D01*
X75909666Y-49621200D02*
X75957285Y-49573580D01*
X75957285Y-49573580D02*
X76004904Y-49478342D01*
X76004904Y-49478342D02*
X76004904Y-49383104D01*
X76004904Y-49383104D02*
X75957285Y-49287866D01*
X75957285Y-49287866D02*
X75909666Y-49240247D01*
X75909666Y-49240247D02*
X75814428Y-49192628D01*
X75814428Y-49192628D02*
X75623952Y-49145009D01*
X75623952Y-49145009D02*
X75528714Y-49097390D01*
X75528714Y-49097390D02*
X75481095Y-49049771D01*
X75481095Y-49049771D02*
X75433476Y-48954533D01*
X75433476Y-48954533D02*
X75433476Y-48859295D01*
X75433476Y-48859295D02*
X75481095Y-48764057D01*
X75481095Y-48764057D02*
X75528714Y-48716438D01*
X75528714Y-48716438D02*
X75623952Y-48668819D01*
X75623952Y-48668819D02*
X75862047Y-48668819D01*
X75862047Y-48668819D02*
X76004904Y-48716438D01*
X76338238Y-48668819D02*
X76576333Y-49668819D01*
X76576333Y-49668819D02*
X76766809Y-48954533D01*
X76766809Y-48954533D02*
X76957285Y-49668819D01*
X76957285Y-49668819D02*
X77195381Y-48668819D01*
X78100142Y-49668819D02*
X77528714Y-49668819D01*
X77814428Y-49668819D02*
X77814428Y-48668819D01*
X77814428Y-48668819D02*
X77719190Y-48811676D01*
X77719190Y-48811676D02*
X77623952Y-48906914D01*
X77623952Y-48906914D02*
X77528714Y-48954533D01*
X79052523Y-49668819D02*
X78481095Y-49668819D01*
X78766809Y-49668819D02*
X78766809Y-48668819D01*
X78766809Y-48668819D02*
X78671571Y-48811676D01*
X78671571Y-48811676D02*
X78576333Y-48906914D01*
X78576333Y-48906914D02*
X78481095Y-48954533D01*
X65459667Y-32071200D02*
X65602524Y-32118819D01*
X65602524Y-32118819D02*
X65840619Y-32118819D01*
X65840619Y-32118819D02*
X65935857Y-32071200D01*
X65935857Y-32071200D02*
X65983476Y-32023580D01*
X65983476Y-32023580D02*
X66031095Y-31928342D01*
X66031095Y-31928342D02*
X66031095Y-31833104D01*
X66031095Y-31833104D02*
X65983476Y-31737866D01*
X65983476Y-31737866D02*
X65935857Y-31690247D01*
X65935857Y-31690247D02*
X65840619Y-31642628D01*
X65840619Y-31642628D02*
X65650143Y-31595009D01*
X65650143Y-31595009D02*
X65554905Y-31547390D01*
X65554905Y-31547390D02*
X65507286Y-31499771D01*
X65507286Y-31499771D02*
X65459667Y-31404533D01*
X65459667Y-31404533D02*
X65459667Y-31309295D01*
X65459667Y-31309295D02*
X65507286Y-31214057D01*
X65507286Y-31214057D02*
X65554905Y-31166438D01*
X65554905Y-31166438D02*
X65650143Y-31118819D01*
X65650143Y-31118819D02*
X65888238Y-31118819D01*
X65888238Y-31118819D02*
X66031095Y-31166438D01*
X66364429Y-31118819D02*
X66602524Y-32118819D01*
X66602524Y-32118819D02*
X66793000Y-31404533D01*
X66793000Y-31404533D02*
X66983476Y-32118819D01*
X66983476Y-32118819D02*
X67221572Y-31118819D01*
X67554905Y-31214057D02*
X67602524Y-31166438D01*
X67602524Y-31166438D02*
X67697762Y-31118819D01*
X67697762Y-31118819D02*
X67935857Y-31118819D01*
X67935857Y-31118819D02*
X68031095Y-31166438D01*
X68031095Y-31166438D02*
X68078714Y-31214057D01*
X68078714Y-31214057D02*
X68126333Y-31309295D01*
X68126333Y-31309295D02*
X68126333Y-31404533D01*
X68126333Y-31404533D02*
X68078714Y-31547390D01*
X68078714Y-31547390D02*
X67507286Y-32118819D01*
X67507286Y-32118819D02*
X68126333Y-32118819D01*
X75909667Y-37921200D02*
X76052524Y-37968819D01*
X76052524Y-37968819D02*
X76290619Y-37968819D01*
X76290619Y-37968819D02*
X76385857Y-37921200D01*
X76385857Y-37921200D02*
X76433476Y-37873580D01*
X76433476Y-37873580D02*
X76481095Y-37778342D01*
X76481095Y-37778342D02*
X76481095Y-37683104D01*
X76481095Y-37683104D02*
X76433476Y-37587866D01*
X76433476Y-37587866D02*
X76385857Y-37540247D01*
X76385857Y-37540247D02*
X76290619Y-37492628D01*
X76290619Y-37492628D02*
X76100143Y-37445009D01*
X76100143Y-37445009D02*
X76004905Y-37397390D01*
X76004905Y-37397390D02*
X75957286Y-37349771D01*
X75957286Y-37349771D02*
X75909667Y-37254533D01*
X75909667Y-37254533D02*
X75909667Y-37159295D01*
X75909667Y-37159295D02*
X75957286Y-37064057D01*
X75957286Y-37064057D02*
X76004905Y-37016438D01*
X76004905Y-37016438D02*
X76100143Y-36968819D01*
X76100143Y-36968819D02*
X76338238Y-36968819D01*
X76338238Y-36968819D02*
X76481095Y-37016438D01*
X76814429Y-36968819D02*
X77052524Y-37968819D01*
X77052524Y-37968819D02*
X77243000Y-37254533D01*
X77243000Y-37254533D02*
X77433476Y-37968819D01*
X77433476Y-37968819D02*
X77671572Y-36968819D01*
X78100143Y-37968819D02*
X78290619Y-37968819D01*
X78290619Y-37968819D02*
X78385857Y-37921200D01*
X78385857Y-37921200D02*
X78433476Y-37873580D01*
X78433476Y-37873580D02*
X78528714Y-37730723D01*
X78528714Y-37730723D02*
X78576333Y-37540247D01*
X78576333Y-37540247D02*
X78576333Y-37159295D01*
X78576333Y-37159295D02*
X78528714Y-37064057D01*
X78528714Y-37064057D02*
X78481095Y-37016438D01*
X78481095Y-37016438D02*
X78385857Y-36968819D01*
X78385857Y-36968819D02*
X78195381Y-36968819D01*
X78195381Y-36968819D02*
X78100143Y-37016438D01*
X78100143Y-37016438D02*
X78052524Y-37064057D01*
X78052524Y-37064057D02*
X78004905Y-37159295D01*
X78004905Y-37159295D02*
X78004905Y-37397390D01*
X78004905Y-37397390D02*
X78052524Y-37492628D01*
X78052524Y-37492628D02*
X78100143Y-37540247D01*
X78100143Y-37540247D02*
X78195381Y-37587866D01*
X78195381Y-37587866D02*
X78385857Y-37587866D01*
X78385857Y-37587866D02*
X78481095Y-37540247D01*
X78481095Y-37540247D02*
X78528714Y-37492628D01*
X78528714Y-37492628D02*
X78576333Y-37397390D01*
X62289905Y-75978819D02*
X62289905Y-74978819D01*
X62289905Y-74978819D02*
X62528000Y-74978819D01*
X62528000Y-74978819D02*
X62670857Y-75026438D01*
X62670857Y-75026438D02*
X62766095Y-75121676D01*
X62766095Y-75121676D02*
X62813714Y-75216914D01*
X62813714Y-75216914D02*
X62861333Y-75407390D01*
X62861333Y-75407390D02*
X62861333Y-75550247D01*
X62861333Y-75550247D02*
X62813714Y-75740723D01*
X62813714Y-75740723D02*
X62766095Y-75835961D01*
X62766095Y-75835961D02*
X62670857Y-75931200D01*
X62670857Y-75931200D02*
X62528000Y-75978819D01*
X62528000Y-75978819D02*
X62289905Y-75978819D01*
X63718476Y-74978819D02*
X63528000Y-74978819D01*
X63528000Y-74978819D02*
X63432762Y-75026438D01*
X63432762Y-75026438D02*
X63385143Y-75074057D01*
X63385143Y-75074057D02*
X63289905Y-75216914D01*
X63289905Y-75216914D02*
X63242286Y-75407390D01*
X63242286Y-75407390D02*
X63242286Y-75788342D01*
X63242286Y-75788342D02*
X63289905Y-75883580D01*
X63289905Y-75883580D02*
X63337524Y-75931200D01*
X63337524Y-75931200D02*
X63432762Y-75978819D01*
X63432762Y-75978819D02*
X63623238Y-75978819D01*
X63623238Y-75978819D02*
X63718476Y-75931200D01*
X63718476Y-75931200D02*
X63766095Y-75883580D01*
X63766095Y-75883580D02*
X63813714Y-75788342D01*
X63813714Y-75788342D02*
X63813714Y-75550247D01*
X63813714Y-75550247D02*
X63766095Y-75455009D01*
X63766095Y-75455009D02*
X63718476Y-75407390D01*
X63718476Y-75407390D02*
X63623238Y-75359771D01*
X63623238Y-75359771D02*
X63432762Y-75359771D01*
X63432762Y-75359771D02*
X63337524Y-75407390D01*
X63337524Y-75407390D02*
X63289905Y-75455009D01*
X63289905Y-75455009D02*
X63242286Y-75550247D01*
X67183714Y-74228819D02*
X67183714Y-73228819D01*
X67183714Y-73228819D02*
X67421809Y-73228819D01*
X67421809Y-73228819D02*
X67564666Y-73276438D01*
X67564666Y-73276438D02*
X67659904Y-73371676D01*
X67659904Y-73371676D02*
X67707523Y-73466914D01*
X67707523Y-73466914D02*
X67755142Y-73657390D01*
X67755142Y-73657390D02*
X67755142Y-73800247D01*
X67755142Y-73800247D02*
X67707523Y-73990723D01*
X67707523Y-73990723D02*
X67659904Y-74085961D01*
X67659904Y-74085961D02*
X67564666Y-74181200D01*
X67564666Y-74181200D02*
X67421809Y-74228819D01*
X67421809Y-74228819D02*
X67183714Y-74228819D01*
X68707523Y-74228819D02*
X68136095Y-74228819D01*
X68421809Y-74228819D02*
X68421809Y-73228819D01*
X68421809Y-73228819D02*
X68326571Y-73371676D01*
X68326571Y-73371676D02*
X68231333Y-73466914D01*
X68231333Y-73466914D02*
X68136095Y-73514533D01*
X69040857Y-73228819D02*
X69707523Y-73228819D01*
X69707523Y-73228819D02*
X69278952Y-74228819D01*
X69868714Y-72478819D02*
X69868714Y-71478819D01*
X69868714Y-71478819D02*
X70106809Y-71478819D01*
X70106809Y-71478819D02*
X70249666Y-71526438D01*
X70249666Y-71526438D02*
X70344904Y-71621676D01*
X70344904Y-71621676D02*
X70392523Y-71716914D01*
X70392523Y-71716914D02*
X70440142Y-71907390D01*
X70440142Y-71907390D02*
X70440142Y-72050247D01*
X70440142Y-72050247D02*
X70392523Y-72240723D01*
X70392523Y-72240723D02*
X70344904Y-72335961D01*
X70344904Y-72335961D02*
X70249666Y-72431200D01*
X70249666Y-72431200D02*
X70106809Y-72478819D01*
X70106809Y-72478819D02*
X69868714Y-72478819D01*
X70821095Y-71574057D02*
X70868714Y-71526438D01*
X70868714Y-71526438D02*
X70963952Y-71478819D01*
X70963952Y-71478819D02*
X71202047Y-71478819D01*
X71202047Y-71478819D02*
X71297285Y-71526438D01*
X71297285Y-71526438D02*
X71344904Y-71574057D01*
X71344904Y-71574057D02*
X71392523Y-71669295D01*
X71392523Y-71669295D02*
X71392523Y-71764533D01*
X71392523Y-71764533D02*
X71344904Y-71907390D01*
X71344904Y-71907390D02*
X70773476Y-72478819D01*
X70773476Y-72478819D02*
X71392523Y-72478819D01*
X71773476Y-71574057D02*
X71821095Y-71526438D01*
X71821095Y-71526438D02*
X71916333Y-71478819D01*
X71916333Y-71478819D02*
X72154428Y-71478819D01*
X72154428Y-71478819D02*
X72249666Y-71526438D01*
X72249666Y-71526438D02*
X72297285Y-71574057D01*
X72297285Y-71574057D02*
X72344904Y-71669295D01*
X72344904Y-71669295D02*
X72344904Y-71764533D01*
X72344904Y-71764533D02*
X72297285Y-71907390D01*
X72297285Y-71907390D02*
X71725857Y-72478819D01*
X71725857Y-72478819D02*
X72344904Y-72478819D01*
X75433476Y-43771200D02*
X75576333Y-43818819D01*
X75576333Y-43818819D02*
X75814428Y-43818819D01*
X75814428Y-43818819D02*
X75909666Y-43771200D01*
X75909666Y-43771200D02*
X75957285Y-43723580D01*
X75957285Y-43723580D02*
X76004904Y-43628342D01*
X76004904Y-43628342D02*
X76004904Y-43533104D01*
X76004904Y-43533104D02*
X75957285Y-43437866D01*
X75957285Y-43437866D02*
X75909666Y-43390247D01*
X75909666Y-43390247D02*
X75814428Y-43342628D01*
X75814428Y-43342628D02*
X75623952Y-43295009D01*
X75623952Y-43295009D02*
X75528714Y-43247390D01*
X75528714Y-43247390D02*
X75481095Y-43199771D01*
X75481095Y-43199771D02*
X75433476Y-43104533D01*
X75433476Y-43104533D02*
X75433476Y-43009295D01*
X75433476Y-43009295D02*
X75481095Y-42914057D01*
X75481095Y-42914057D02*
X75528714Y-42866438D01*
X75528714Y-42866438D02*
X75623952Y-42818819D01*
X75623952Y-42818819D02*
X75862047Y-42818819D01*
X75862047Y-42818819D02*
X76004904Y-42866438D01*
X76338238Y-42818819D02*
X76576333Y-43818819D01*
X76576333Y-43818819D02*
X76766809Y-43104533D01*
X76766809Y-43104533D02*
X76957285Y-43818819D01*
X76957285Y-43818819D02*
X77195381Y-42818819D01*
X78100142Y-43818819D02*
X77528714Y-43818819D01*
X77814428Y-43818819D02*
X77814428Y-42818819D01*
X77814428Y-42818819D02*
X77719190Y-42961676D01*
X77719190Y-42961676D02*
X77623952Y-43056914D01*
X77623952Y-43056914D02*
X77528714Y-43104533D01*
X78719190Y-42818819D02*
X78814428Y-42818819D01*
X78814428Y-42818819D02*
X78909666Y-42866438D01*
X78909666Y-42866438D02*
X78957285Y-42914057D01*
X78957285Y-42914057D02*
X79004904Y-43009295D01*
X79004904Y-43009295D02*
X79052523Y-43199771D01*
X79052523Y-43199771D02*
X79052523Y-43437866D01*
X79052523Y-43437866D02*
X79004904Y-43628342D01*
X79004904Y-43628342D02*
X78957285Y-43723580D01*
X78957285Y-43723580D02*
X78909666Y-43771200D01*
X78909666Y-43771200D02*
X78814428Y-43818819D01*
X78814428Y-43818819D02*
X78719190Y-43818819D01*
X78719190Y-43818819D02*
X78623952Y-43771200D01*
X78623952Y-43771200D02*
X78576333Y-43723580D01*
X78576333Y-43723580D02*
X78528714Y-43628342D01*
X78528714Y-43628342D02*
X78481095Y-43437866D01*
X78481095Y-43437866D02*
X78481095Y-43199771D01*
X78481095Y-43199771D02*
X78528714Y-43009295D01*
X78528714Y-43009295D02*
X78576333Y-42914057D01*
X78576333Y-42914057D02*
X78623952Y-42866438D01*
X78623952Y-42866438D02*
X78719190Y-42818819D01*
X96333476Y-55471200D02*
X96476333Y-55518819D01*
X96476333Y-55518819D02*
X96714428Y-55518819D01*
X96714428Y-55518819D02*
X96809666Y-55471200D01*
X96809666Y-55471200D02*
X96857285Y-55423580D01*
X96857285Y-55423580D02*
X96904904Y-55328342D01*
X96904904Y-55328342D02*
X96904904Y-55233104D01*
X96904904Y-55233104D02*
X96857285Y-55137866D01*
X96857285Y-55137866D02*
X96809666Y-55090247D01*
X96809666Y-55090247D02*
X96714428Y-55042628D01*
X96714428Y-55042628D02*
X96523952Y-54995009D01*
X96523952Y-54995009D02*
X96428714Y-54947390D01*
X96428714Y-54947390D02*
X96381095Y-54899771D01*
X96381095Y-54899771D02*
X96333476Y-54804533D01*
X96333476Y-54804533D02*
X96333476Y-54709295D01*
X96333476Y-54709295D02*
X96381095Y-54614057D01*
X96381095Y-54614057D02*
X96428714Y-54566438D01*
X96428714Y-54566438D02*
X96523952Y-54518819D01*
X96523952Y-54518819D02*
X96762047Y-54518819D01*
X96762047Y-54518819D02*
X96904904Y-54566438D01*
X97238238Y-54518819D02*
X97476333Y-55518819D01*
X97476333Y-55518819D02*
X97666809Y-54804533D01*
X97666809Y-54804533D02*
X97857285Y-55518819D01*
X97857285Y-55518819D02*
X98095381Y-54518819D01*
X98428714Y-54614057D02*
X98476333Y-54566438D01*
X98476333Y-54566438D02*
X98571571Y-54518819D01*
X98571571Y-54518819D02*
X98809666Y-54518819D01*
X98809666Y-54518819D02*
X98904904Y-54566438D01*
X98904904Y-54566438D02*
X98952523Y-54614057D01*
X98952523Y-54614057D02*
X99000142Y-54709295D01*
X99000142Y-54709295D02*
X99000142Y-54804533D01*
X99000142Y-54804533D02*
X98952523Y-54947390D01*
X98952523Y-54947390D02*
X98381095Y-55518819D01*
X98381095Y-55518819D02*
X99000142Y-55518819D01*
X99857285Y-54852152D02*
X99857285Y-55518819D01*
X99619190Y-54471200D02*
X99381095Y-55185485D01*
X99381095Y-55185485D02*
X100000142Y-55185485D01*
X85883476Y-61321200D02*
X86026333Y-61368819D01*
X86026333Y-61368819D02*
X86264428Y-61368819D01*
X86264428Y-61368819D02*
X86359666Y-61321200D01*
X86359666Y-61321200D02*
X86407285Y-61273580D01*
X86407285Y-61273580D02*
X86454904Y-61178342D01*
X86454904Y-61178342D02*
X86454904Y-61083104D01*
X86454904Y-61083104D02*
X86407285Y-60987866D01*
X86407285Y-60987866D02*
X86359666Y-60940247D01*
X86359666Y-60940247D02*
X86264428Y-60892628D01*
X86264428Y-60892628D02*
X86073952Y-60845009D01*
X86073952Y-60845009D02*
X85978714Y-60797390D01*
X85978714Y-60797390D02*
X85931095Y-60749771D01*
X85931095Y-60749771D02*
X85883476Y-60654533D01*
X85883476Y-60654533D02*
X85883476Y-60559295D01*
X85883476Y-60559295D02*
X85931095Y-60464057D01*
X85931095Y-60464057D02*
X85978714Y-60416438D01*
X85978714Y-60416438D02*
X86073952Y-60368819D01*
X86073952Y-60368819D02*
X86312047Y-60368819D01*
X86312047Y-60368819D02*
X86454904Y-60416438D01*
X86788238Y-60368819D02*
X87026333Y-61368819D01*
X87026333Y-61368819D02*
X87216809Y-60654533D01*
X87216809Y-60654533D02*
X87407285Y-61368819D01*
X87407285Y-61368819D02*
X87645381Y-60368819D01*
X88550142Y-61368819D02*
X87978714Y-61368819D01*
X88264428Y-61368819D02*
X88264428Y-60368819D01*
X88264428Y-60368819D02*
X88169190Y-60511676D01*
X88169190Y-60511676D02*
X88073952Y-60606914D01*
X88073952Y-60606914D02*
X87978714Y-60654533D01*
X89026333Y-61368819D02*
X89216809Y-61368819D01*
X89216809Y-61368819D02*
X89312047Y-61321200D01*
X89312047Y-61321200D02*
X89359666Y-61273580D01*
X89359666Y-61273580D02*
X89454904Y-61130723D01*
X89454904Y-61130723D02*
X89502523Y-60940247D01*
X89502523Y-60940247D02*
X89502523Y-60559295D01*
X89502523Y-60559295D02*
X89454904Y-60464057D01*
X89454904Y-60464057D02*
X89407285Y-60416438D01*
X89407285Y-60416438D02*
X89312047Y-60368819D01*
X89312047Y-60368819D02*
X89121571Y-60368819D01*
X89121571Y-60368819D02*
X89026333Y-60416438D01*
X89026333Y-60416438D02*
X88978714Y-60464057D01*
X88978714Y-60464057D02*
X88931095Y-60559295D01*
X88931095Y-60559295D02*
X88931095Y-60797390D01*
X88931095Y-60797390D02*
X88978714Y-60892628D01*
X88978714Y-60892628D02*
X89026333Y-60940247D01*
X89026333Y-60940247D02*
X89121571Y-60987866D01*
X89121571Y-60987866D02*
X89312047Y-60987866D01*
X89312047Y-60987866D02*
X89407285Y-60940247D01*
X89407285Y-60940247D02*
X89454904Y-60892628D01*
X89454904Y-60892628D02*
X89502523Y-60797390D01*
X89196333Y-94658819D02*
X88863000Y-94182628D01*
X88624905Y-94658819D02*
X88624905Y-93658819D01*
X88624905Y-93658819D02*
X89005857Y-93658819D01*
X89005857Y-93658819D02*
X89101095Y-93706438D01*
X89101095Y-93706438D02*
X89148714Y-93754057D01*
X89148714Y-93754057D02*
X89196333Y-93849295D01*
X89196333Y-93849295D02*
X89196333Y-93992152D01*
X89196333Y-93992152D02*
X89148714Y-94087390D01*
X89148714Y-94087390D02*
X89101095Y-94135009D01*
X89101095Y-94135009D02*
X89005857Y-94182628D01*
X89005857Y-94182628D02*
X88624905Y-94182628D01*
X89577286Y-93754057D02*
X89624905Y-93706438D01*
X89624905Y-93706438D02*
X89720143Y-93658819D01*
X89720143Y-93658819D02*
X89958238Y-93658819D01*
X89958238Y-93658819D02*
X90053476Y-93706438D01*
X90053476Y-93706438D02*
X90101095Y-93754057D01*
X90101095Y-93754057D02*
X90148714Y-93849295D01*
X90148714Y-93849295D02*
X90148714Y-93944533D01*
X90148714Y-93944533D02*
X90101095Y-94087390D01*
X90101095Y-94087390D02*
X89529667Y-94658819D01*
X89529667Y-94658819D02*
X90148714Y-94658819D01*
X62289905Y-72478819D02*
X62289905Y-71478819D01*
X62289905Y-71478819D02*
X62528000Y-71478819D01*
X62528000Y-71478819D02*
X62670857Y-71526438D01*
X62670857Y-71526438D02*
X62766095Y-71621676D01*
X62766095Y-71621676D02*
X62813714Y-71716914D01*
X62813714Y-71716914D02*
X62861333Y-71907390D01*
X62861333Y-71907390D02*
X62861333Y-72050247D01*
X62861333Y-72050247D02*
X62813714Y-72240723D01*
X62813714Y-72240723D02*
X62766095Y-72335961D01*
X62766095Y-72335961D02*
X62670857Y-72431200D01*
X62670857Y-72431200D02*
X62528000Y-72478819D01*
X62528000Y-72478819D02*
X62289905Y-72478819D01*
X63718476Y-71812152D02*
X63718476Y-72478819D01*
X63480381Y-71431200D02*
X63242286Y-72145485D01*
X63242286Y-72145485D02*
X63861333Y-72145485D01*
X65459667Y-37921200D02*
X65602524Y-37968819D01*
X65602524Y-37968819D02*
X65840619Y-37968819D01*
X65840619Y-37968819D02*
X65935857Y-37921200D01*
X65935857Y-37921200D02*
X65983476Y-37873580D01*
X65983476Y-37873580D02*
X66031095Y-37778342D01*
X66031095Y-37778342D02*
X66031095Y-37683104D01*
X66031095Y-37683104D02*
X65983476Y-37587866D01*
X65983476Y-37587866D02*
X65935857Y-37540247D01*
X65935857Y-37540247D02*
X65840619Y-37492628D01*
X65840619Y-37492628D02*
X65650143Y-37445009D01*
X65650143Y-37445009D02*
X65554905Y-37397390D01*
X65554905Y-37397390D02*
X65507286Y-37349771D01*
X65507286Y-37349771D02*
X65459667Y-37254533D01*
X65459667Y-37254533D02*
X65459667Y-37159295D01*
X65459667Y-37159295D02*
X65507286Y-37064057D01*
X65507286Y-37064057D02*
X65554905Y-37016438D01*
X65554905Y-37016438D02*
X65650143Y-36968819D01*
X65650143Y-36968819D02*
X65888238Y-36968819D01*
X65888238Y-36968819D02*
X66031095Y-37016438D01*
X66364429Y-36968819D02*
X66602524Y-37968819D01*
X66602524Y-37968819D02*
X66793000Y-37254533D01*
X66793000Y-37254533D02*
X66983476Y-37968819D01*
X66983476Y-37968819D02*
X67221572Y-36968819D01*
X67507286Y-36968819D02*
X68126333Y-36968819D01*
X68126333Y-36968819D02*
X67793000Y-37349771D01*
X67793000Y-37349771D02*
X67935857Y-37349771D01*
X67935857Y-37349771D02*
X68031095Y-37397390D01*
X68031095Y-37397390D02*
X68078714Y-37445009D01*
X68078714Y-37445009D02*
X68126333Y-37540247D01*
X68126333Y-37540247D02*
X68126333Y-37778342D01*
X68126333Y-37778342D02*
X68078714Y-37873580D01*
X68078714Y-37873580D02*
X68031095Y-37921200D01*
X68031095Y-37921200D02*
X67935857Y-37968819D01*
X67935857Y-37968819D02*
X67650143Y-37968819D01*
X67650143Y-37968819D02*
X67554905Y-37921200D01*
X67554905Y-37921200D02*
X67507286Y-37873580D01*
X75433476Y-55471200D02*
X75576333Y-55518819D01*
X75576333Y-55518819D02*
X75814428Y-55518819D01*
X75814428Y-55518819D02*
X75909666Y-55471200D01*
X75909666Y-55471200D02*
X75957285Y-55423580D01*
X75957285Y-55423580D02*
X76004904Y-55328342D01*
X76004904Y-55328342D02*
X76004904Y-55233104D01*
X76004904Y-55233104D02*
X75957285Y-55137866D01*
X75957285Y-55137866D02*
X75909666Y-55090247D01*
X75909666Y-55090247D02*
X75814428Y-55042628D01*
X75814428Y-55042628D02*
X75623952Y-54995009D01*
X75623952Y-54995009D02*
X75528714Y-54947390D01*
X75528714Y-54947390D02*
X75481095Y-54899771D01*
X75481095Y-54899771D02*
X75433476Y-54804533D01*
X75433476Y-54804533D02*
X75433476Y-54709295D01*
X75433476Y-54709295D02*
X75481095Y-54614057D01*
X75481095Y-54614057D02*
X75528714Y-54566438D01*
X75528714Y-54566438D02*
X75623952Y-54518819D01*
X75623952Y-54518819D02*
X75862047Y-54518819D01*
X75862047Y-54518819D02*
X76004904Y-54566438D01*
X76338238Y-54518819D02*
X76576333Y-55518819D01*
X76576333Y-55518819D02*
X76766809Y-54804533D01*
X76766809Y-54804533D02*
X76957285Y-55518819D01*
X76957285Y-55518819D02*
X77195381Y-54518819D01*
X78100142Y-55518819D02*
X77528714Y-55518819D01*
X77814428Y-55518819D02*
X77814428Y-54518819D01*
X77814428Y-54518819D02*
X77719190Y-54661676D01*
X77719190Y-54661676D02*
X77623952Y-54756914D01*
X77623952Y-54756914D02*
X77528714Y-54804533D01*
X78481095Y-54614057D02*
X78528714Y-54566438D01*
X78528714Y-54566438D02*
X78623952Y-54518819D01*
X78623952Y-54518819D02*
X78862047Y-54518819D01*
X78862047Y-54518819D02*
X78957285Y-54566438D01*
X78957285Y-54566438D02*
X79004904Y-54614057D01*
X79004904Y-54614057D02*
X79052523Y-54709295D01*
X79052523Y-54709295D02*
X79052523Y-54804533D01*
X79052523Y-54804533D02*
X79004904Y-54947390D01*
X79004904Y-54947390D02*
X78433476Y-55518819D01*
X78433476Y-55518819D02*
X79052523Y-55518819D01*
X41532819Y-95304666D02*
X41056628Y-95637999D01*
X41532819Y-95876094D02*
X40532819Y-95876094D01*
X40532819Y-95876094D02*
X40532819Y-95495142D01*
X40532819Y-95495142D02*
X40580438Y-95399904D01*
X40580438Y-95399904D02*
X40628057Y-95352285D01*
X40628057Y-95352285D02*
X40723295Y-95304666D01*
X40723295Y-95304666D02*
X40866152Y-95304666D01*
X40866152Y-95304666D02*
X40961390Y-95352285D01*
X40961390Y-95352285D02*
X41009009Y-95399904D01*
X41009009Y-95399904D02*
X41056628Y-95495142D01*
X41056628Y-95495142D02*
X41056628Y-95876094D01*
X40532819Y-94971332D02*
X40532819Y-94352285D01*
X40532819Y-94352285D02*
X40913771Y-94685618D01*
X40913771Y-94685618D02*
X40913771Y-94542761D01*
X40913771Y-94542761D02*
X40961390Y-94447523D01*
X40961390Y-94447523D02*
X41009009Y-94399904D01*
X41009009Y-94399904D02*
X41104247Y-94352285D01*
X41104247Y-94352285D02*
X41342342Y-94352285D01*
X41342342Y-94352285D02*
X41437580Y-94399904D01*
X41437580Y-94399904D02*
X41485200Y-94447523D01*
X41485200Y-94447523D02*
X41532819Y-94542761D01*
X41532819Y-94542761D02*
X41532819Y-94828475D01*
X41532819Y-94828475D02*
X41485200Y-94923713D01*
X41485200Y-94923713D02*
X41437580Y-94971332D01*
X85883476Y-37921200D02*
X86026333Y-37968819D01*
X86026333Y-37968819D02*
X86264428Y-37968819D01*
X86264428Y-37968819D02*
X86359666Y-37921200D01*
X86359666Y-37921200D02*
X86407285Y-37873580D01*
X86407285Y-37873580D02*
X86454904Y-37778342D01*
X86454904Y-37778342D02*
X86454904Y-37683104D01*
X86454904Y-37683104D02*
X86407285Y-37587866D01*
X86407285Y-37587866D02*
X86359666Y-37540247D01*
X86359666Y-37540247D02*
X86264428Y-37492628D01*
X86264428Y-37492628D02*
X86073952Y-37445009D01*
X86073952Y-37445009D02*
X85978714Y-37397390D01*
X85978714Y-37397390D02*
X85931095Y-37349771D01*
X85931095Y-37349771D02*
X85883476Y-37254533D01*
X85883476Y-37254533D02*
X85883476Y-37159295D01*
X85883476Y-37159295D02*
X85931095Y-37064057D01*
X85931095Y-37064057D02*
X85978714Y-37016438D01*
X85978714Y-37016438D02*
X86073952Y-36968819D01*
X86073952Y-36968819D02*
X86312047Y-36968819D01*
X86312047Y-36968819D02*
X86454904Y-37016438D01*
X86788238Y-36968819D02*
X87026333Y-37968819D01*
X87026333Y-37968819D02*
X87216809Y-37254533D01*
X87216809Y-37254533D02*
X87407285Y-37968819D01*
X87407285Y-37968819D02*
X87645381Y-36968819D01*
X88550142Y-37968819D02*
X87978714Y-37968819D01*
X88264428Y-37968819D02*
X88264428Y-36968819D01*
X88264428Y-36968819D02*
X88169190Y-37111676D01*
X88169190Y-37111676D02*
X88073952Y-37206914D01*
X88073952Y-37206914D02*
X87978714Y-37254533D01*
X89454904Y-36968819D02*
X88978714Y-36968819D01*
X88978714Y-36968819D02*
X88931095Y-37445009D01*
X88931095Y-37445009D02*
X88978714Y-37397390D01*
X88978714Y-37397390D02*
X89073952Y-37349771D01*
X89073952Y-37349771D02*
X89312047Y-37349771D01*
X89312047Y-37349771D02*
X89407285Y-37397390D01*
X89407285Y-37397390D02*
X89454904Y-37445009D01*
X89454904Y-37445009D02*
X89502523Y-37540247D01*
X89502523Y-37540247D02*
X89502523Y-37778342D01*
X89502523Y-37778342D02*
X89454904Y-37873580D01*
X89454904Y-37873580D02*
X89407285Y-37921200D01*
X89407285Y-37921200D02*
X89312047Y-37968819D01*
X89312047Y-37968819D02*
X89073952Y-37968819D01*
X89073952Y-37968819D02*
X88978714Y-37921200D01*
X88978714Y-37921200D02*
X88931095Y-37873580D01*
X108188666Y-102052819D02*
X108188666Y-102767104D01*
X108188666Y-102767104D02*
X108141047Y-102909961D01*
X108141047Y-102909961D02*
X108045809Y-103005200D01*
X108045809Y-103005200D02*
X107902952Y-103052819D01*
X107902952Y-103052819D02*
X107807714Y-103052819D01*
X109188666Y-103052819D02*
X108617238Y-103052819D01*
X108902952Y-103052819D02*
X108902952Y-102052819D01*
X108902952Y-102052819D02*
X108807714Y-102195676D01*
X108807714Y-102195676D02*
X108712476Y-102290914D01*
X108712476Y-102290914D02*
X108617238Y-102338533D01*
X91426333Y-105173580D02*
X91378714Y-105221200D01*
X91378714Y-105221200D02*
X91235857Y-105268819D01*
X91235857Y-105268819D02*
X91140619Y-105268819D01*
X91140619Y-105268819D02*
X90997762Y-105221200D01*
X90997762Y-105221200D02*
X90902524Y-105125961D01*
X90902524Y-105125961D02*
X90854905Y-105030723D01*
X90854905Y-105030723D02*
X90807286Y-104840247D01*
X90807286Y-104840247D02*
X90807286Y-104697390D01*
X90807286Y-104697390D02*
X90854905Y-104506914D01*
X90854905Y-104506914D02*
X90902524Y-104411676D01*
X90902524Y-104411676D02*
X90997762Y-104316438D01*
X90997762Y-104316438D02*
X91140619Y-104268819D01*
X91140619Y-104268819D02*
X91235857Y-104268819D01*
X91235857Y-104268819D02*
X91378714Y-104316438D01*
X91378714Y-104316438D02*
X91426333Y-104364057D01*
X91807286Y-104364057D02*
X91854905Y-104316438D01*
X91854905Y-104316438D02*
X91950143Y-104268819D01*
X91950143Y-104268819D02*
X92188238Y-104268819D01*
X92188238Y-104268819D02*
X92283476Y-104316438D01*
X92283476Y-104316438D02*
X92331095Y-104364057D01*
X92331095Y-104364057D02*
X92378714Y-104459295D01*
X92378714Y-104459295D02*
X92378714Y-104554533D01*
X92378714Y-104554533D02*
X92331095Y-104697390D01*
X92331095Y-104697390D02*
X91759667Y-105268819D01*
X91759667Y-105268819D02*
X92378714Y-105268819D01*
X62289905Y-68978819D02*
X62289905Y-67978819D01*
X62289905Y-67978819D02*
X62528000Y-67978819D01*
X62528000Y-67978819D02*
X62670857Y-68026438D01*
X62670857Y-68026438D02*
X62766095Y-68121676D01*
X62766095Y-68121676D02*
X62813714Y-68216914D01*
X62813714Y-68216914D02*
X62861333Y-68407390D01*
X62861333Y-68407390D02*
X62861333Y-68550247D01*
X62861333Y-68550247D02*
X62813714Y-68740723D01*
X62813714Y-68740723D02*
X62766095Y-68835961D01*
X62766095Y-68835961D02*
X62670857Y-68931200D01*
X62670857Y-68931200D02*
X62528000Y-68978819D01*
X62528000Y-68978819D02*
X62289905Y-68978819D01*
X63242286Y-68074057D02*
X63289905Y-68026438D01*
X63289905Y-68026438D02*
X63385143Y-67978819D01*
X63385143Y-67978819D02*
X63623238Y-67978819D01*
X63623238Y-67978819D02*
X63718476Y-68026438D01*
X63718476Y-68026438D02*
X63766095Y-68074057D01*
X63766095Y-68074057D02*
X63813714Y-68169295D01*
X63813714Y-68169295D02*
X63813714Y-68264533D01*
X63813714Y-68264533D02*
X63766095Y-68407390D01*
X63766095Y-68407390D02*
X63194667Y-68978819D01*
X63194667Y-68978819D02*
X63813714Y-68978819D01*
X64974905Y-70728819D02*
X64974905Y-69728819D01*
X64974905Y-69728819D02*
X65213000Y-69728819D01*
X65213000Y-69728819D02*
X65355857Y-69776438D01*
X65355857Y-69776438D02*
X65451095Y-69871676D01*
X65451095Y-69871676D02*
X65498714Y-69966914D01*
X65498714Y-69966914D02*
X65546333Y-70157390D01*
X65546333Y-70157390D02*
X65546333Y-70300247D01*
X65546333Y-70300247D02*
X65498714Y-70490723D01*
X65498714Y-70490723D02*
X65451095Y-70585961D01*
X65451095Y-70585961D02*
X65355857Y-70681200D01*
X65355857Y-70681200D02*
X65213000Y-70728819D01*
X65213000Y-70728819D02*
X64974905Y-70728819D01*
X66022524Y-70728819D02*
X66213000Y-70728819D01*
X66213000Y-70728819D02*
X66308238Y-70681200D01*
X66308238Y-70681200D02*
X66355857Y-70633580D01*
X66355857Y-70633580D02*
X66451095Y-70490723D01*
X66451095Y-70490723D02*
X66498714Y-70300247D01*
X66498714Y-70300247D02*
X66498714Y-69919295D01*
X66498714Y-69919295D02*
X66451095Y-69824057D01*
X66451095Y-69824057D02*
X66403476Y-69776438D01*
X66403476Y-69776438D02*
X66308238Y-69728819D01*
X66308238Y-69728819D02*
X66117762Y-69728819D01*
X66117762Y-69728819D02*
X66022524Y-69776438D01*
X66022524Y-69776438D02*
X65974905Y-69824057D01*
X65974905Y-69824057D02*
X65927286Y-69919295D01*
X65927286Y-69919295D02*
X65927286Y-70157390D01*
X65927286Y-70157390D02*
X65974905Y-70252628D01*
X65974905Y-70252628D02*
X66022524Y-70300247D01*
X66022524Y-70300247D02*
X66117762Y-70347866D01*
X66117762Y-70347866D02*
X66308238Y-70347866D01*
X66308238Y-70347866D02*
X66403476Y-70300247D01*
X66403476Y-70300247D02*
X66451095Y-70252628D01*
X66451095Y-70252628D02*
X66498714Y-70157390D01*
X96333476Y-61321200D02*
X96476333Y-61368819D01*
X96476333Y-61368819D02*
X96714428Y-61368819D01*
X96714428Y-61368819D02*
X96809666Y-61321200D01*
X96809666Y-61321200D02*
X96857285Y-61273580D01*
X96857285Y-61273580D02*
X96904904Y-61178342D01*
X96904904Y-61178342D02*
X96904904Y-61083104D01*
X96904904Y-61083104D02*
X96857285Y-60987866D01*
X96857285Y-60987866D02*
X96809666Y-60940247D01*
X96809666Y-60940247D02*
X96714428Y-60892628D01*
X96714428Y-60892628D02*
X96523952Y-60845009D01*
X96523952Y-60845009D02*
X96428714Y-60797390D01*
X96428714Y-60797390D02*
X96381095Y-60749771D01*
X96381095Y-60749771D02*
X96333476Y-60654533D01*
X96333476Y-60654533D02*
X96333476Y-60559295D01*
X96333476Y-60559295D02*
X96381095Y-60464057D01*
X96381095Y-60464057D02*
X96428714Y-60416438D01*
X96428714Y-60416438D02*
X96523952Y-60368819D01*
X96523952Y-60368819D02*
X96762047Y-60368819D01*
X96762047Y-60368819D02*
X96904904Y-60416438D01*
X97238238Y-60368819D02*
X97476333Y-61368819D01*
X97476333Y-61368819D02*
X97666809Y-60654533D01*
X97666809Y-60654533D02*
X97857285Y-61368819D01*
X97857285Y-61368819D02*
X98095381Y-60368819D01*
X98428714Y-60464057D02*
X98476333Y-60416438D01*
X98476333Y-60416438D02*
X98571571Y-60368819D01*
X98571571Y-60368819D02*
X98809666Y-60368819D01*
X98809666Y-60368819D02*
X98904904Y-60416438D01*
X98904904Y-60416438D02*
X98952523Y-60464057D01*
X98952523Y-60464057D02*
X99000142Y-60559295D01*
X99000142Y-60559295D02*
X99000142Y-60654533D01*
X99000142Y-60654533D02*
X98952523Y-60797390D01*
X98952523Y-60797390D02*
X98381095Y-61368819D01*
X98381095Y-61368819D02*
X99000142Y-61368819D01*
X99904904Y-60368819D02*
X99428714Y-60368819D01*
X99428714Y-60368819D02*
X99381095Y-60845009D01*
X99381095Y-60845009D02*
X99428714Y-60797390D01*
X99428714Y-60797390D02*
X99523952Y-60749771D01*
X99523952Y-60749771D02*
X99762047Y-60749771D01*
X99762047Y-60749771D02*
X99857285Y-60797390D01*
X99857285Y-60797390D02*
X99904904Y-60845009D01*
X99904904Y-60845009D02*
X99952523Y-60940247D01*
X99952523Y-60940247D02*
X99952523Y-61178342D01*
X99952523Y-61178342D02*
X99904904Y-61273580D01*
X99904904Y-61273580D02*
X99857285Y-61321200D01*
X99857285Y-61321200D02*
X99762047Y-61368819D01*
X99762047Y-61368819D02*
X99523952Y-61368819D01*
X99523952Y-61368819D02*
X99428714Y-61321200D01*
X99428714Y-61321200D02*
X99381095Y-61273580D01*
X67183714Y-68978819D02*
X67183714Y-67978819D01*
X67183714Y-67978819D02*
X67421809Y-67978819D01*
X67421809Y-67978819D02*
X67564666Y-68026438D01*
X67564666Y-68026438D02*
X67659904Y-68121676D01*
X67659904Y-68121676D02*
X67707523Y-68216914D01*
X67707523Y-68216914D02*
X67755142Y-68407390D01*
X67755142Y-68407390D02*
X67755142Y-68550247D01*
X67755142Y-68550247D02*
X67707523Y-68740723D01*
X67707523Y-68740723D02*
X67659904Y-68835961D01*
X67659904Y-68835961D02*
X67564666Y-68931200D01*
X67564666Y-68931200D02*
X67421809Y-68978819D01*
X67421809Y-68978819D02*
X67183714Y-68978819D01*
X68707523Y-68978819D02*
X68136095Y-68978819D01*
X68421809Y-68978819D02*
X68421809Y-67978819D01*
X68421809Y-67978819D02*
X68326571Y-68121676D01*
X68326571Y-68121676D02*
X68231333Y-68216914D01*
X68231333Y-68216914D02*
X68136095Y-68264533D01*
X69564666Y-68312152D02*
X69564666Y-68978819D01*
X69326571Y-67931200D02*
X69088476Y-68645485D01*
X69088476Y-68645485D02*
X69707523Y-68645485D01*
X75909667Y-32071200D02*
X76052524Y-32118819D01*
X76052524Y-32118819D02*
X76290619Y-32118819D01*
X76290619Y-32118819D02*
X76385857Y-32071200D01*
X76385857Y-32071200D02*
X76433476Y-32023580D01*
X76433476Y-32023580D02*
X76481095Y-31928342D01*
X76481095Y-31928342D02*
X76481095Y-31833104D01*
X76481095Y-31833104D02*
X76433476Y-31737866D01*
X76433476Y-31737866D02*
X76385857Y-31690247D01*
X76385857Y-31690247D02*
X76290619Y-31642628D01*
X76290619Y-31642628D02*
X76100143Y-31595009D01*
X76100143Y-31595009D02*
X76004905Y-31547390D01*
X76004905Y-31547390D02*
X75957286Y-31499771D01*
X75957286Y-31499771D02*
X75909667Y-31404533D01*
X75909667Y-31404533D02*
X75909667Y-31309295D01*
X75909667Y-31309295D02*
X75957286Y-31214057D01*
X75957286Y-31214057D02*
X76004905Y-31166438D01*
X76004905Y-31166438D02*
X76100143Y-31118819D01*
X76100143Y-31118819D02*
X76338238Y-31118819D01*
X76338238Y-31118819D02*
X76481095Y-31166438D01*
X76814429Y-31118819D02*
X77052524Y-32118819D01*
X77052524Y-32118819D02*
X77243000Y-31404533D01*
X77243000Y-31404533D02*
X77433476Y-32118819D01*
X77433476Y-32118819D02*
X77671572Y-31118819D01*
X78195381Y-31547390D02*
X78100143Y-31499771D01*
X78100143Y-31499771D02*
X78052524Y-31452152D01*
X78052524Y-31452152D02*
X78004905Y-31356914D01*
X78004905Y-31356914D02*
X78004905Y-31309295D01*
X78004905Y-31309295D02*
X78052524Y-31214057D01*
X78052524Y-31214057D02*
X78100143Y-31166438D01*
X78100143Y-31166438D02*
X78195381Y-31118819D01*
X78195381Y-31118819D02*
X78385857Y-31118819D01*
X78385857Y-31118819D02*
X78481095Y-31166438D01*
X78481095Y-31166438D02*
X78528714Y-31214057D01*
X78528714Y-31214057D02*
X78576333Y-31309295D01*
X78576333Y-31309295D02*
X78576333Y-31356914D01*
X78576333Y-31356914D02*
X78528714Y-31452152D01*
X78528714Y-31452152D02*
X78481095Y-31499771D01*
X78481095Y-31499771D02*
X78385857Y-31547390D01*
X78385857Y-31547390D02*
X78195381Y-31547390D01*
X78195381Y-31547390D02*
X78100143Y-31595009D01*
X78100143Y-31595009D02*
X78052524Y-31642628D01*
X78052524Y-31642628D02*
X78004905Y-31737866D01*
X78004905Y-31737866D02*
X78004905Y-31928342D01*
X78004905Y-31928342D02*
X78052524Y-32023580D01*
X78052524Y-32023580D02*
X78100143Y-32071200D01*
X78100143Y-32071200D02*
X78195381Y-32118819D01*
X78195381Y-32118819D02*
X78385857Y-32118819D01*
X78385857Y-32118819D02*
X78481095Y-32071200D01*
X78481095Y-32071200D02*
X78528714Y-32023580D01*
X78528714Y-32023580D02*
X78576333Y-31928342D01*
X78576333Y-31928342D02*
X78576333Y-31737866D01*
X78576333Y-31737866D02*
X78528714Y-31642628D01*
X78528714Y-31642628D02*
X78481095Y-31595009D01*
X78481095Y-31595009D02*
X78385857Y-31547390D01*
X91426333Y-103423580D02*
X91378714Y-103471200D01*
X91378714Y-103471200D02*
X91235857Y-103518819D01*
X91235857Y-103518819D02*
X91140619Y-103518819D01*
X91140619Y-103518819D02*
X90997762Y-103471200D01*
X90997762Y-103471200D02*
X90902524Y-103375961D01*
X90902524Y-103375961D02*
X90854905Y-103280723D01*
X90854905Y-103280723D02*
X90807286Y-103090247D01*
X90807286Y-103090247D02*
X90807286Y-102947390D01*
X90807286Y-102947390D02*
X90854905Y-102756914D01*
X90854905Y-102756914D02*
X90902524Y-102661676D01*
X90902524Y-102661676D02*
X90997762Y-102566438D01*
X90997762Y-102566438D02*
X91140619Y-102518819D01*
X91140619Y-102518819D02*
X91235857Y-102518819D01*
X91235857Y-102518819D02*
X91378714Y-102566438D01*
X91378714Y-102566438D02*
X91426333Y-102614057D01*
X92378714Y-103518819D02*
X91807286Y-103518819D01*
X92093000Y-103518819D02*
X92093000Y-102518819D01*
X92093000Y-102518819D02*
X91997762Y-102661676D01*
X91997762Y-102661676D02*
X91902524Y-102756914D01*
X91902524Y-102756914D02*
X91807286Y-102804533D01*
X69868714Y-74228819D02*
X69868714Y-73228819D01*
X69868714Y-73228819D02*
X70106809Y-73228819D01*
X70106809Y-73228819D02*
X70249666Y-73276438D01*
X70249666Y-73276438D02*
X70344904Y-73371676D01*
X70344904Y-73371676D02*
X70392523Y-73466914D01*
X70392523Y-73466914D02*
X70440142Y-73657390D01*
X70440142Y-73657390D02*
X70440142Y-73800247D01*
X70440142Y-73800247D02*
X70392523Y-73990723D01*
X70392523Y-73990723D02*
X70344904Y-74085961D01*
X70344904Y-74085961D02*
X70249666Y-74181200D01*
X70249666Y-74181200D02*
X70106809Y-74228819D01*
X70106809Y-74228819D02*
X69868714Y-74228819D01*
X70821095Y-73324057D02*
X70868714Y-73276438D01*
X70868714Y-73276438D02*
X70963952Y-73228819D01*
X70963952Y-73228819D02*
X71202047Y-73228819D01*
X71202047Y-73228819D02*
X71297285Y-73276438D01*
X71297285Y-73276438D02*
X71344904Y-73324057D01*
X71344904Y-73324057D02*
X71392523Y-73419295D01*
X71392523Y-73419295D02*
X71392523Y-73514533D01*
X71392523Y-73514533D02*
X71344904Y-73657390D01*
X71344904Y-73657390D02*
X70773476Y-74228819D01*
X70773476Y-74228819D02*
X71392523Y-74228819D01*
X71725857Y-73228819D02*
X72344904Y-73228819D01*
X72344904Y-73228819D02*
X72011571Y-73609771D01*
X72011571Y-73609771D02*
X72154428Y-73609771D01*
X72154428Y-73609771D02*
X72249666Y-73657390D01*
X72249666Y-73657390D02*
X72297285Y-73705009D01*
X72297285Y-73705009D02*
X72344904Y-73800247D01*
X72344904Y-73800247D02*
X72344904Y-74038342D01*
X72344904Y-74038342D02*
X72297285Y-74133580D01*
X72297285Y-74133580D02*
X72249666Y-74181200D01*
X72249666Y-74181200D02*
X72154428Y-74228819D01*
X72154428Y-74228819D02*
X71868714Y-74228819D01*
X71868714Y-74228819D02*
X71773476Y-74181200D01*
X71773476Y-74181200D02*
X71725857Y-74133580D01*
X65459667Y-61321200D02*
X65602524Y-61368819D01*
X65602524Y-61368819D02*
X65840619Y-61368819D01*
X65840619Y-61368819D02*
X65935857Y-61321200D01*
X65935857Y-61321200D02*
X65983476Y-61273580D01*
X65983476Y-61273580D02*
X66031095Y-61178342D01*
X66031095Y-61178342D02*
X66031095Y-61083104D01*
X66031095Y-61083104D02*
X65983476Y-60987866D01*
X65983476Y-60987866D02*
X65935857Y-60940247D01*
X65935857Y-60940247D02*
X65840619Y-60892628D01*
X65840619Y-60892628D02*
X65650143Y-60845009D01*
X65650143Y-60845009D02*
X65554905Y-60797390D01*
X65554905Y-60797390D02*
X65507286Y-60749771D01*
X65507286Y-60749771D02*
X65459667Y-60654533D01*
X65459667Y-60654533D02*
X65459667Y-60559295D01*
X65459667Y-60559295D02*
X65507286Y-60464057D01*
X65507286Y-60464057D02*
X65554905Y-60416438D01*
X65554905Y-60416438D02*
X65650143Y-60368819D01*
X65650143Y-60368819D02*
X65888238Y-60368819D01*
X65888238Y-60368819D02*
X66031095Y-60416438D01*
X66364429Y-60368819D02*
X66602524Y-61368819D01*
X66602524Y-61368819D02*
X66793000Y-60654533D01*
X66793000Y-60654533D02*
X66983476Y-61368819D01*
X66983476Y-61368819D02*
X67221572Y-60368819D01*
X67507286Y-60368819D02*
X68173952Y-60368819D01*
X68173952Y-60368819D02*
X67745381Y-61368819D01*
X67183714Y-67228819D02*
X67183714Y-66228819D01*
X67183714Y-66228819D02*
X67421809Y-66228819D01*
X67421809Y-66228819D02*
X67564666Y-66276438D01*
X67564666Y-66276438D02*
X67659904Y-66371676D01*
X67659904Y-66371676D02*
X67707523Y-66466914D01*
X67707523Y-66466914D02*
X67755142Y-66657390D01*
X67755142Y-66657390D02*
X67755142Y-66800247D01*
X67755142Y-66800247D02*
X67707523Y-66990723D01*
X67707523Y-66990723D02*
X67659904Y-67085961D01*
X67659904Y-67085961D02*
X67564666Y-67181200D01*
X67564666Y-67181200D02*
X67421809Y-67228819D01*
X67421809Y-67228819D02*
X67183714Y-67228819D01*
X68707523Y-67228819D02*
X68136095Y-67228819D01*
X68421809Y-67228819D02*
X68421809Y-66228819D01*
X68421809Y-66228819D02*
X68326571Y-66371676D01*
X68326571Y-66371676D02*
X68231333Y-66466914D01*
X68231333Y-66466914D02*
X68136095Y-66514533D01*
X69040857Y-66228819D02*
X69659904Y-66228819D01*
X69659904Y-66228819D02*
X69326571Y-66609771D01*
X69326571Y-66609771D02*
X69469428Y-66609771D01*
X69469428Y-66609771D02*
X69564666Y-66657390D01*
X69564666Y-66657390D02*
X69612285Y-66705009D01*
X69612285Y-66705009D02*
X69659904Y-66800247D01*
X69659904Y-66800247D02*
X69659904Y-67038342D01*
X69659904Y-67038342D02*
X69612285Y-67133580D01*
X69612285Y-67133580D02*
X69564666Y-67181200D01*
X69564666Y-67181200D02*
X69469428Y-67228819D01*
X69469428Y-67228819D02*
X69183714Y-67228819D01*
X69183714Y-67228819D02*
X69088476Y-67181200D01*
X69088476Y-67181200D02*
X69040857Y-67133580D01*
X83809667Y-103461200D02*
X83952524Y-103508819D01*
X83952524Y-103508819D02*
X84190619Y-103508819D01*
X84190619Y-103508819D02*
X84285857Y-103461200D01*
X84285857Y-103461200D02*
X84333476Y-103413580D01*
X84333476Y-103413580D02*
X84381095Y-103318342D01*
X84381095Y-103318342D02*
X84381095Y-103223104D01*
X84381095Y-103223104D02*
X84333476Y-103127866D01*
X84333476Y-103127866D02*
X84285857Y-103080247D01*
X84285857Y-103080247D02*
X84190619Y-103032628D01*
X84190619Y-103032628D02*
X84000143Y-102985009D01*
X84000143Y-102985009D02*
X83904905Y-102937390D01*
X83904905Y-102937390D02*
X83857286Y-102889771D01*
X83857286Y-102889771D02*
X83809667Y-102794533D01*
X83809667Y-102794533D02*
X83809667Y-102699295D01*
X83809667Y-102699295D02*
X83857286Y-102604057D01*
X83857286Y-102604057D02*
X83904905Y-102556438D01*
X83904905Y-102556438D02*
X84000143Y-102508819D01*
X84000143Y-102508819D02*
X84238238Y-102508819D01*
X84238238Y-102508819D02*
X84381095Y-102556438D01*
X84714429Y-102508819D02*
X84952524Y-103508819D01*
X84952524Y-103508819D02*
X85143000Y-102794533D01*
X85143000Y-102794533D02*
X85333476Y-103508819D01*
X85333476Y-103508819D02*
X85571572Y-102508819D01*
X86476333Y-103508819D02*
X85904905Y-103508819D01*
X86190619Y-103508819D02*
X86190619Y-102508819D01*
X86190619Y-102508819D02*
X86095381Y-102651676D01*
X86095381Y-102651676D02*
X86000143Y-102746914D01*
X86000143Y-102746914D02*
X85904905Y-102794533D01*
X64974905Y-68978819D02*
X64974905Y-67978819D01*
X64974905Y-67978819D02*
X65213000Y-67978819D01*
X65213000Y-67978819D02*
X65355857Y-68026438D01*
X65355857Y-68026438D02*
X65451095Y-68121676D01*
X65451095Y-68121676D02*
X65498714Y-68216914D01*
X65498714Y-68216914D02*
X65546333Y-68407390D01*
X65546333Y-68407390D02*
X65546333Y-68550247D01*
X65546333Y-68550247D02*
X65498714Y-68740723D01*
X65498714Y-68740723D02*
X65451095Y-68835961D01*
X65451095Y-68835961D02*
X65355857Y-68931200D01*
X65355857Y-68931200D02*
X65213000Y-68978819D01*
X65213000Y-68978819D02*
X64974905Y-68978819D01*
X66117762Y-68407390D02*
X66022524Y-68359771D01*
X66022524Y-68359771D02*
X65974905Y-68312152D01*
X65974905Y-68312152D02*
X65927286Y-68216914D01*
X65927286Y-68216914D02*
X65927286Y-68169295D01*
X65927286Y-68169295D02*
X65974905Y-68074057D01*
X65974905Y-68074057D02*
X66022524Y-68026438D01*
X66022524Y-68026438D02*
X66117762Y-67978819D01*
X66117762Y-67978819D02*
X66308238Y-67978819D01*
X66308238Y-67978819D02*
X66403476Y-68026438D01*
X66403476Y-68026438D02*
X66451095Y-68074057D01*
X66451095Y-68074057D02*
X66498714Y-68169295D01*
X66498714Y-68169295D02*
X66498714Y-68216914D01*
X66498714Y-68216914D02*
X66451095Y-68312152D01*
X66451095Y-68312152D02*
X66403476Y-68359771D01*
X66403476Y-68359771D02*
X66308238Y-68407390D01*
X66308238Y-68407390D02*
X66117762Y-68407390D01*
X66117762Y-68407390D02*
X66022524Y-68455009D01*
X66022524Y-68455009D02*
X65974905Y-68502628D01*
X65974905Y-68502628D02*
X65927286Y-68597866D01*
X65927286Y-68597866D02*
X65927286Y-68788342D01*
X65927286Y-68788342D02*
X65974905Y-68883580D01*
X65974905Y-68883580D02*
X66022524Y-68931200D01*
X66022524Y-68931200D02*
X66117762Y-68978819D01*
X66117762Y-68978819D02*
X66308238Y-68978819D01*
X66308238Y-68978819D02*
X66403476Y-68931200D01*
X66403476Y-68931200D02*
X66451095Y-68883580D01*
X66451095Y-68883580D02*
X66498714Y-68788342D01*
X66498714Y-68788342D02*
X66498714Y-68597866D01*
X66498714Y-68597866D02*
X66451095Y-68502628D01*
X66451095Y-68502628D02*
X66403476Y-68455009D01*
X66403476Y-68455009D02*
X66308238Y-68407390D01*
X67183714Y-75978819D02*
X67183714Y-74978819D01*
X67183714Y-74978819D02*
X67421809Y-74978819D01*
X67421809Y-74978819D02*
X67564666Y-75026438D01*
X67564666Y-75026438D02*
X67659904Y-75121676D01*
X67659904Y-75121676D02*
X67707523Y-75216914D01*
X67707523Y-75216914D02*
X67755142Y-75407390D01*
X67755142Y-75407390D02*
X67755142Y-75550247D01*
X67755142Y-75550247D02*
X67707523Y-75740723D01*
X67707523Y-75740723D02*
X67659904Y-75835961D01*
X67659904Y-75835961D02*
X67564666Y-75931200D01*
X67564666Y-75931200D02*
X67421809Y-75978819D01*
X67421809Y-75978819D02*
X67183714Y-75978819D01*
X68707523Y-75978819D02*
X68136095Y-75978819D01*
X68421809Y-75978819D02*
X68421809Y-74978819D01*
X68421809Y-74978819D02*
X68326571Y-75121676D01*
X68326571Y-75121676D02*
X68231333Y-75216914D01*
X68231333Y-75216914D02*
X68136095Y-75264533D01*
X69278952Y-75407390D02*
X69183714Y-75359771D01*
X69183714Y-75359771D02*
X69136095Y-75312152D01*
X69136095Y-75312152D02*
X69088476Y-75216914D01*
X69088476Y-75216914D02*
X69088476Y-75169295D01*
X69088476Y-75169295D02*
X69136095Y-75074057D01*
X69136095Y-75074057D02*
X69183714Y-75026438D01*
X69183714Y-75026438D02*
X69278952Y-74978819D01*
X69278952Y-74978819D02*
X69469428Y-74978819D01*
X69469428Y-74978819D02*
X69564666Y-75026438D01*
X69564666Y-75026438D02*
X69612285Y-75074057D01*
X69612285Y-75074057D02*
X69659904Y-75169295D01*
X69659904Y-75169295D02*
X69659904Y-75216914D01*
X69659904Y-75216914D02*
X69612285Y-75312152D01*
X69612285Y-75312152D02*
X69564666Y-75359771D01*
X69564666Y-75359771D02*
X69469428Y-75407390D01*
X69469428Y-75407390D02*
X69278952Y-75407390D01*
X69278952Y-75407390D02*
X69183714Y-75455009D01*
X69183714Y-75455009D02*
X69136095Y-75502628D01*
X69136095Y-75502628D02*
X69088476Y-75597866D01*
X69088476Y-75597866D02*
X69088476Y-75788342D01*
X69088476Y-75788342D02*
X69136095Y-75883580D01*
X69136095Y-75883580D02*
X69183714Y-75931200D01*
X69183714Y-75931200D02*
X69278952Y-75978819D01*
X69278952Y-75978819D02*
X69469428Y-75978819D01*
X69469428Y-75978819D02*
X69564666Y-75931200D01*
X69564666Y-75931200D02*
X69612285Y-75883580D01*
X69612285Y-75883580D02*
X69659904Y-75788342D01*
X69659904Y-75788342D02*
X69659904Y-75597866D01*
X69659904Y-75597866D02*
X69612285Y-75502628D01*
X69612285Y-75502628D02*
X69564666Y-75455009D01*
X69564666Y-75455009D02*
X69469428Y-75407390D01*
X132566294Y-75659619D02*
X132566294Y-76469142D01*
X132566294Y-76469142D02*
X132613913Y-76564380D01*
X132613913Y-76564380D02*
X132661532Y-76612000D01*
X132661532Y-76612000D02*
X132756770Y-76659619D01*
X132756770Y-76659619D02*
X132947246Y-76659619D01*
X132947246Y-76659619D02*
X133042484Y-76612000D01*
X133042484Y-76612000D02*
X133090103Y-76564380D01*
X133090103Y-76564380D02*
X133137722Y-76469142D01*
X133137722Y-76469142D02*
X133137722Y-75659619D01*
X134137722Y-76659619D02*
X133566294Y-76659619D01*
X133852008Y-76659619D02*
X133852008Y-75659619D01*
X133852008Y-75659619D02*
X133756770Y-75802476D01*
X133756770Y-75802476D02*
X133661532Y-75897714D01*
X133661532Y-75897714D02*
X133566294Y-75945333D01*
X75433476Y-61321200D02*
X75576333Y-61368819D01*
X75576333Y-61368819D02*
X75814428Y-61368819D01*
X75814428Y-61368819D02*
X75909666Y-61321200D01*
X75909666Y-61321200D02*
X75957285Y-61273580D01*
X75957285Y-61273580D02*
X76004904Y-61178342D01*
X76004904Y-61178342D02*
X76004904Y-61083104D01*
X76004904Y-61083104D02*
X75957285Y-60987866D01*
X75957285Y-60987866D02*
X75909666Y-60940247D01*
X75909666Y-60940247D02*
X75814428Y-60892628D01*
X75814428Y-60892628D02*
X75623952Y-60845009D01*
X75623952Y-60845009D02*
X75528714Y-60797390D01*
X75528714Y-60797390D02*
X75481095Y-60749771D01*
X75481095Y-60749771D02*
X75433476Y-60654533D01*
X75433476Y-60654533D02*
X75433476Y-60559295D01*
X75433476Y-60559295D02*
X75481095Y-60464057D01*
X75481095Y-60464057D02*
X75528714Y-60416438D01*
X75528714Y-60416438D02*
X75623952Y-60368819D01*
X75623952Y-60368819D02*
X75862047Y-60368819D01*
X75862047Y-60368819D02*
X76004904Y-60416438D01*
X76338238Y-60368819D02*
X76576333Y-61368819D01*
X76576333Y-61368819D02*
X76766809Y-60654533D01*
X76766809Y-60654533D02*
X76957285Y-61368819D01*
X76957285Y-61368819D02*
X77195381Y-60368819D01*
X78100142Y-61368819D02*
X77528714Y-61368819D01*
X77814428Y-61368819D02*
X77814428Y-60368819D01*
X77814428Y-60368819D02*
X77719190Y-60511676D01*
X77719190Y-60511676D02*
X77623952Y-60606914D01*
X77623952Y-60606914D02*
X77528714Y-60654533D01*
X78433476Y-60368819D02*
X79052523Y-60368819D01*
X79052523Y-60368819D02*
X78719190Y-60749771D01*
X78719190Y-60749771D02*
X78862047Y-60749771D01*
X78862047Y-60749771D02*
X78957285Y-60797390D01*
X78957285Y-60797390D02*
X79004904Y-60845009D01*
X79004904Y-60845009D02*
X79052523Y-60940247D01*
X79052523Y-60940247D02*
X79052523Y-61178342D01*
X79052523Y-61178342D02*
X79004904Y-61273580D01*
X79004904Y-61273580D02*
X78957285Y-61321200D01*
X78957285Y-61321200D02*
X78862047Y-61368819D01*
X78862047Y-61368819D02*
X78576333Y-61368819D01*
X78576333Y-61368819D02*
X78481095Y-61321200D01*
X78481095Y-61321200D02*
X78433476Y-61273580D01*
X96333476Y-43771200D02*
X96476333Y-43818819D01*
X96476333Y-43818819D02*
X96714428Y-43818819D01*
X96714428Y-43818819D02*
X96809666Y-43771200D01*
X96809666Y-43771200D02*
X96857285Y-43723580D01*
X96857285Y-43723580D02*
X96904904Y-43628342D01*
X96904904Y-43628342D02*
X96904904Y-43533104D01*
X96904904Y-43533104D02*
X96857285Y-43437866D01*
X96857285Y-43437866D02*
X96809666Y-43390247D01*
X96809666Y-43390247D02*
X96714428Y-43342628D01*
X96714428Y-43342628D02*
X96523952Y-43295009D01*
X96523952Y-43295009D02*
X96428714Y-43247390D01*
X96428714Y-43247390D02*
X96381095Y-43199771D01*
X96381095Y-43199771D02*
X96333476Y-43104533D01*
X96333476Y-43104533D02*
X96333476Y-43009295D01*
X96333476Y-43009295D02*
X96381095Y-42914057D01*
X96381095Y-42914057D02*
X96428714Y-42866438D01*
X96428714Y-42866438D02*
X96523952Y-42818819D01*
X96523952Y-42818819D02*
X96762047Y-42818819D01*
X96762047Y-42818819D02*
X96904904Y-42866438D01*
X97238238Y-42818819D02*
X97476333Y-43818819D01*
X97476333Y-43818819D02*
X97666809Y-43104533D01*
X97666809Y-43104533D02*
X97857285Y-43818819D01*
X97857285Y-43818819D02*
X98095381Y-42818819D01*
X98428714Y-42914057D02*
X98476333Y-42866438D01*
X98476333Y-42866438D02*
X98571571Y-42818819D01*
X98571571Y-42818819D02*
X98809666Y-42818819D01*
X98809666Y-42818819D02*
X98904904Y-42866438D01*
X98904904Y-42866438D02*
X98952523Y-42914057D01*
X98952523Y-42914057D02*
X99000142Y-43009295D01*
X99000142Y-43009295D02*
X99000142Y-43104533D01*
X99000142Y-43104533D02*
X98952523Y-43247390D01*
X98952523Y-43247390D02*
X98381095Y-43818819D01*
X98381095Y-43818819D02*
X99000142Y-43818819D01*
X99381095Y-42914057D02*
X99428714Y-42866438D01*
X99428714Y-42866438D02*
X99523952Y-42818819D01*
X99523952Y-42818819D02*
X99762047Y-42818819D01*
X99762047Y-42818819D02*
X99857285Y-42866438D01*
X99857285Y-42866438D02*
X99904904Y-42914057D01*
X99904904Y-42914057D02*
X99952523Y-43009295D01*
X99952523Y-43009295D02*
X99952523Y-43104533D01*
X99952523Y-43104533D02*
X99904904Y-43247390D01*
X99904904Y-43247390D02*
X99333476Y-43818819D01*
X99333476Y-43818819D02*
X99952523Y-43818819D01*
X69868714Y-75978819D02*
X69868714Y-74978819D01*
X69868714Y-74978819D02*
X70106809Y-74978819D01*
X70106809Y-74978819D02*
X70249666Y-75026438D01*
X70249666Y-75026438D02*
X70344904Y-75121676D01*
X70344904Y-75121676D02*
X70392523Y-75216914D01*
X70392523Y-75216914D02*
X70440142Y-75407390D01*
X70440142Y-75407390D02*
X70440142Y-75550247D01*
X70440142Y-75550247D02*
X70392523Y-75740723D01*
X70392523Y-75740723D02*
X70344904Y-75835961D01*
X70344904Y-75835961D02*
X70249666Y-75931200D01*
X70249666Y-75931200D02*
X70106809Y-75978819D01*
X70106809Y-75978819D02*
X69868714Y-75978819D01*
X70821095Y-75074057D02*
X70868714Y-75026438D01*
X70868714Y-75026438D02*
X70963952Y-74978819D01*
X70963952Y-74978819D02*
X71202047Y-74978819D01*
X71202047Y-74978819D02*
X71297285Y-75026438D01*
X71297285Y-75026438D02*
X71344904Y-75074057D01*
X71344904Y-75074057D02*
X71392523Y-75169295D01*
X71392523Y-75169295D02*
X71392523Y-75264533D01*
X71392523Y-75264533D02*
X71344904Y-75407390D01*
X71344904Y-75407390D02*
X70773476Y-75978819D01*
X70773476Y-75978819D02*
X71392523Y-75978819D01*
X72249666Y-75312152D02*
X72249666Y-75978819D01*
X72011571Y-74931200D02*
X71773476Y-75645485D01*
X71773476Y-75645485D02*
X72392523Y-75645485D01*
X62289905Y-67228819D02*
X62289905Y-66228819D01*
X62289905Y-66228819D02*
X62528000Y-66228819D01*
X62528000Y-66228819D02*
X62670857Y-66276438D01*
X62670857Y-66276438D02*
X62766095Y-66371676D01*
X62766095Y-66371676D02*
X62813714Y-66466914D01*
X62813714Y-66466914D02*
X62861333Y-66657390D01*
X62861333Y-66657390D02*
X62861333Y-66800247D01*
X62861333Y-66800247D02*
X62813714Y-66990723D01*
X62813714Y-66990723D02*
X62766095Y-67085961D01*
X62766095Y-67085961D02*
X62670857Y-67181200D01*
X62670857Y-67181200D02*
X62528000Y-67228819D01*
X62528000Y-67228819D02*
X62289905Y-67228819D01*
X63813714Y-67228819D02*
X63242286Y-67228819D01*
X63528000Y-67228819D02*
X63528000Y-66228819D01*
X63528000Y-66228819D02*
X63432762Y-66371676D01*
X63432762Y-66371676D02*
X63337524Y-66466914D01*
X63337524Y-66466914D02*
X63242286Y-66514533D01*
X138718476Y-82478819D02*
X139385142Y-83478819D01*
X139385142Y-82478819D02*
X138718476Y-83478819D01*
X140289904Y-83478819D02*
X139718476Y-83478819D01*
X140004190Y-83478819D02*
X140004190Y-82478819D01*
X140004190Y-82478819D02*
X139908952Y-82621676D01*
X139908952Y-82621676D02*
X139813714Y-82716914D01*
X139813714Y-82716914D02*
X139718476Y-82764533D01*
X65459667Y-55471200D02*
X65602524Y-55518819D01*
X65602524Y-55518819D02*
X65840619Y-55518819D01*
X65840619Y-55518819D02*
X65935857Y-55471200D01*
X65935857Y-55471200D02*
X65983476Y-55423580D01*
X65983476Y-55423580D02*
X66031095Y-55328342D01*
X66031095Y-55328342D02*
X66031095Y-55233104D01*
X66031095Y-55233104D02*
X65983476Y-55137866D01*
X65983476Y-55137866D02*
X65935857Y-55090247D01*
X65935857Y-55090247D02*
X65840619Y-55042628D01*
X65840619Y-55042628D02*
X65650143Y-54995009D01*
X65650143Y-54995009D02*
X65554905Y-54947390D01*
X65554905Y-54947390D02*
X65507286Y-54899771D01*
X65507286Y-54899771D02*
X65459667Y-54804533D01*
X65459667Y-54804533D02*
X65459667Y-54709295D01*
X65459667Y-54709295D02*
X65507286Y-54614057D01*
X65507286Y-54614057D02*
X65554905Y-54566438D01*
X65554905Y-54566438D02*
X65650143Y-54518819D01*
X65650143Y-54518819D02*
X65888238Y-54518819D01*
X65888238Y-54518819D02*
X66031095Y-54566438D01*
X66364429Y-54518819D02*
X66602524Y-55518819D01*
X66602524Y-55518819D02*
X66793000Y-54804533D01*
X66793000Y-54804533D02*
X66983476Y-55518819D01*
X66983476Y-55518819D02*
X67221572Y-54518819D01*
X68031095Y-54518819D02*
X67840619Y-54518819D01*
X67840619Y-54518819D02*
X67745381Y-54566438D01*
X67745381Y-54566438D02*
X67697762Y-54614057D01*
X67697762Y-54614057D02*
X67602524Y-54756914D01*
X67602524Y-54756914D02*
X67554905Y-54947390D01*
X67554905Y-54947390D02*
X67554905Y-55328342D01*
X67554905Y-55328342D02*
X67602524Y-55423580D01*
X67602524Y-55423580D02*
X67650143Y-55471200D01*
X67650143Y-55471200D02*
X67745381Y-55518819D01*
X67745381Y-55518819D02*
X67935857Y-55518819D01*
X67935857Y-55518819D02*
X68031095Y-55471200D01*
X68031095Y-55471200D02*
X68078714Y-55423580D01*
X68078714Y-55423580D02*
X68126333Y-55328342D01*
X68126333Y-55328342D02*
X68126333Y-55090247D01*
X68126333Y-55090247D02*
X68078714Y-54995009D01*
X68078714Y-54995009D02*
X68031095Y-54947390D01*
X68031095Y-54947390D02*
X67935857Y-54899771D01*
X67935857Y-54899771D02*
X67745381Y-54899771D01*
X67745381Y-54899771D02*
X67650143Y-54947390D01*
X67650143Y-54947390D02*
X67602524Y-54995009D01*
X67602524Y-54995009D02*
X67554905Y-55090247D01*
X65459667Y-49621200D02*
X65602524Y-49668819D01*
X65602524Y-49668819D02*
X65840619Y-49668819D01*
X65840619Y-49668819D02*
X65935857Y-49621200D01*
X65935857Y-49621200D02*
X65983476Y-49573580D01*
X65983476Y-49573580D02*
X66031095Y-49478342D01*
X66031095Y-49478342D02*
X66031095Y-49383104D01*
X66031095Y-49383104D02*
X65983476Y-49287866D01*
X65983476Y-49287866D02*
X65935857Y-49240247D01*
X65935857Y-49240247D02*
X65840619Y-49192628D01*
X65840619Y-49192628D02*
X65650143Y-49145009D01*
X65650143Y-49145009D02*
X65554905Y-49097390D01*
X65554905Y-49097390D02*
X65507286Y-49049771D01*
X65507286Y-49049771D02*
X65459667Y-48954533D01*
X65459667Y-48954533D02*
X65459667Y-48859295D01*
X65459667Y-48859295D02*
X65507286Y-48764057D01*
X65507286Y-48764057D02*
X65554905Y-48716438D01*
X65554905Y-48716438D02*
X65650143Y-48668819D01*
X65650143Y-48668819D02*
X65888238Y-48668819D01*
X65888238Y-48668819D02*
X66031095Y-48716438D01*
X66364429Y-48668819D02*
X66602524Y-49668819D01*
X66602524Y-49668819D02*
X66793000Y-48954533D01*
X66793000Y-48954533D02*
X66983476Y-49668819D01*
X66983476Y-49668819D02*
X67221572Y-48668819D01*
X68078714Y-48668819D02*
X67602524Y-48668819D01*
X67602524Y-48668819D02*
X67554905Y-49145009D01*
X67554905Y-49145009D02*
X67602524Y-49097390D01*
X67602524Y-49097390D02*
X67697762Y-49049771D01*
X67697762Y-49049771D02*
X67935857Y-49049771D01*
X67935857Y-49049771D02*
X68031095Y-49097390D01*
X68031095Y-49097390D02*
X68078714Y-49145009D01*
X68078714Y-49145009D02*
X68126333Y-49240247D01*
X68126333Y-49240247D02*
X68126333Y-49478342D01*
X68126333Y-49478342D02*
X68078714Y-49573580D01*
X68078714Y-49573580D02*
X68031095Y-49621200D01*
X68031095Y-49621200D02*
X67935857Y-49668819D01*
X67935857Y-49668819D02*
X67697762Y-49668819D01*
X67697762Y-49668819D02*
X67602524Y-49621200D01*
X67602524Y-49621200D02*
X67554905Y-49573580D01*
X69868714Y-70728819D02*
X69868714Y-69728819D01*
X69868714Y-69728819D02*
X70106809Y-69728819D01*
X70106809Y-69728819D02*
X70249666Y-69776438D01*
X70249666Y-69776438D02*
X70344904Y-69871676D01*
X70344904Y-69871676D02*
X70392523Y-69966914D01*
X70392523Y-69966914D02*
X70440142Y-70157390D01*
X70440142Y-70157390D02*
X70440142Y-70300247D01*
X70440142Y-70300247D02*
X70392523Y-70490723D01*
X70392523Y-70490723D02*
X70344904Y-70585961D01*
X70344904Y-70585961D02*
X70249666Y-70681200D01*
X70249666Y-70681200D02*
X70106809Y-70728819D01*
X70106809Y-70728819D02*
X69868714Y-70728819D01*
X70821095Y-69824057D02*
X70868714Y-69776438D01*
X70868714Y-69776438D02*
X70963952Y-69728819D01*
X70963952Y-69728819D02*
X71202047Y-69728819D01*
X71202047Y-69728819D02*
X71297285Y-69776438D01*
X71297285Y-69776438D02*
X71344904Y-69824057D01*
X71344904Y-69824057D02*
X71392523Y-69919295D01*
X71392523Y-69919295D02*
X71392523Y-70014533D01*
X71392523Y-70014533D02*
X71344904Y-70157390D01*
X71344904Y-70157390D02*
X70773476Y-70728819D01*
X70773476Y-70728819D02*
X71392523Y-70728819D01*
X72344904Y-70728819D02*
X71773476Y-70728819D01*
X72059190Y-70728819D02*
X72059190Y-69728819D01*
X72059190Y-69728819D02*
X71963952Y-69871676D01*
X71963952Y-69871676D02*
X71868714Y-69966914D01*
X71868714Y-69966914D02*
X71773476Y-70014533D01*
D11*
%TO.C,D16*%
X67588000Y-73074000D02*
G75*
G02*
X67488000Y-73074000I-50000J0D01*
G01*
X67488000Y-73074000D02*
G75*
G02*
X67588000Y-73074000I50000J0D01*
G01*
D12*
%TO.C,SW18*%
X84043000Y-55824000D02*
X84043000Y-57207000D01*
X84043000Y-55824000D02*
X85426000Y-55824000D01*
X84283000Y-56064000D02*
X84283000Y-57374000D01*
X84283000Y-56064000D02*
X91103000Y-56064000D01*
X84283000Y-58974000D02*
X84283000Y-60284000D01*
X84283000Y-60284000D02*
X91103000Y-60284000D01*
X85883000Y-57539000D02*
X85883000Y-58809000D01*
X85883000Y-57659000D02*
X87089667Y-57659000D01*
X85883000Y-57779000D02*
X87089667Y-57779000D01*
X85883000Y-57899000D02*
X87089667Y-57899000D01*
X85883000Y-58019000D02*
X87089667Y-58019000D01*
X85883000Y-58139000D02*
X87089667Y-58139000D01*
X85883000Y-58259000D02*
X87089667Y-58259000D01*
X85883000Y-58379000D02*
X87089667Y-58379000D01*
X85883000Y-58499000D02*
X87089667Y-58499000D01*
X85883000Y-58619000D02*
X87089667Y-58619000D01*
X85883000Y-58739000D02*
X87089667Y-58739000D01*
X85883000Y-58809000D02*
X89503000Y-58809000D01*
X87089667Y-57539000D02*
X87089667Y-58809000D01*
X89503000Y-57539000D02*
X85883000Y-57539000D01*
X89503000Y-58809000D02*
X89503000Y-57539000D01*
X91103000Y-56064000D02*
X91103000Y-57374000D01*
X91103000Y-58974000D02*
X91103000Y-60284000D01*
%TO.C,SW17*%
X84043000Y-49974000D02*
X84043000Y-51357000D01*
X84043000Y-49974000D02*
X85426000Y-49974000D01*
X84283000Y-50214000D02*
X84283000Y-51524000D01*
X84283000Y-50214000D02*
X91103000Y-50214000D01*
X84283000Y-53124000D02*
X84283000Y-54434000D01*
X84283000Y-54434000D02*
X91103000Y-54434000D01*
X85883000Y-51689000D02*
X85883000Y-52959000D01*
X85883000Y-51809000D02*
X87089667Y-51809000D01*
X85883000Y-51929000D02*
X87089667Y-51929000D01*
X85883000Y-52049000D02*
X87089667Y-52049000D01*
X85883000Y-52169000D02*
X87089667Y-52169000D01*
X85883000Y-52289000D02*
X87089667Y-52289000D01*
X85883000Y-52409000D02*
X87089667Y-52409000D01*
X85883000Y-52529000D02*
X87089667Y-52529000D01*
X85883000Y-52649000D02*
X87089667Y-52649000D01*
X85883000Y-52769000D02*
X87089667Y-52769000D01*
X85883000Y-52889000D02*
X87089667Y-52889000D01*
X85883000Y-52959000D02*
X89503000Y-52959000D01*
X87089667Y-51689000D02*
X87089667Y-52959000D01*
X89503000Y-51689000D02*
X85883000Y-51689000D01*
X89503000Y-52959000D02*
X89503000Y-51689000D01*
X91103000Y-50214000D02*
X91103000Y-51524000D01*
X91103000Y-53124000D02*
X91103000Y-54434000D01*
D11*
%TO.C,D12*%
X64903000Y-76574000D02*
G75*
G02*
X64803000Y-76574000I-50000J0D01*
G01*
X64803000Y-76574000D02*
G75*
G02*
X64903000Y-76574000I50000J0D01*
G01*
%TO.C,D7*%
X64903000Y-67824000D02*
G75*
G02*
X64803000Y-67824000I-50000J0D01*
G01*
X64803000Y-67824000D02*
G75*
G02*
X64903000Y-67824000I50000J0D01*
G01*
D12*
%TO.C,SW23*%
X94493000Y-49974000D02*
X94493000Y-51357000D01*
X94493000Y-49974000D02*
X95876000Y-49974000D01*
X94733000Y-50214000D02*
X94733000Y-51524000D01*
X94733000Y-50214000D02*
X101553000Y-50214000D01*
X94733000Y-53124000D02*
X94733000Y-54434000D01*
X94733000Y-54434000D02*
X101553000Y-54434000D01*
X96333000Y-51689000D02*
X96333000Y-52959000D01*
X96333000Y-51809000D02*
X97539667Y-51809000D01*
X96333000Y-51929000D02*
X97539667Y-51929000D01*
X96333000Y-52049000D02*
X97539667Y-52049000D01*
X96333000Y-52169000D02*
X97539667Y-52169000D01*
X96333000Y-52289000D02*
X97539667Y-52289000D01*
X96333000Y-52409000D02*
X97539667Y-52409000D01*
X96333000Y-52529000D02*
X97539667Y-52529000D01*
X96333000Y-52649000D02*
X97539667Y-52649000D01*
X96333000Y-52769000D02*
X97539667Y-52769000D01*
X96333000Y-52889000D02*
X97539667Y-52889000D01*
X96333000Y-52959000D02*
X99953000Y-52959000D01*
X97539667Y-51689000D02*
X97539667Y-52959000D01*
X99953000Y-51689000D02*
X96333000Y-51689000D01*
X99953000Y-52959000D02*
X99953000Y-51689000D01*
X101553000Y-50214000D02*
X101553000Y-51524000D01*
X101553000Y-53124000D02*
X101553000Y-54434000D01*
%TO.C,R1*%
X63493000Y-109024000D02*
X63493000Y-109524000D01*
X63493000Y-109524000D02*
X77993000Y-109524000D01*
X64493000Y-95524000D02*
X64493000Y-97524000D01*
X64493000Y-101024000D02*
X64493000Y-109024000D01*
X64493000Y-109024000D02*
X63493000Y-109024000D01*
X66743000Y-95274000D02*
X67743000Y-95274000D01*
X76993000Y-95524000D02*
X64493000Y-95524000D01*
X76993000Y-97524000D02*
X76993000Y-95524000D01*
X76993000Y-109024000D02*
X76993000Y-101024000D01*
X77993000Y-109024000D02*
X76993000Y-109024000D01*
X77993000Y-109524000D02*
X77993000Y-109024000D01*
%TO.C,SW16*%
X84043000Y-44124000D02*
X84043000Y-45507000D01*
X84043000Y-44124000D02*
X85426000Y-44124000D01*
X84283000Y-44364000D02*
X84283000Y-45674000D01*
X84283000Y-44364000D02*
X91103000Y-44364000D01*
X84283000Y-47274000D02*
X84283000Y-48584000D01*
X84283000Y-48584000D02*
X91103000Y-48584000D01*
X85883000Y-45839000D02*
X85883000Y-47109000D01*
X85883000Y-45959000D02*
X87089667Y-45959000D01*
X85883000Y-46079000D02*
X87089667Y-46079000D01*
X85883000Y-46199000D02*
X87089667Y-46199000D01*
X85883000Y-46319000D02*
X87089667Y-46319000D01*
X85883000Y-46439000D02*
X87089667Y-46439000D01*
X85883000Y-46559000D02*
X87089667Y-46559000D01*
X85883000Y-46679000D02*
X87089667Y-46679000D01*
X85883000Y-46799000D02*
X87089667Y-46799000D01*
X85883000Y-46919000D02*
X87089667Y-46919000D01*
X85883000Y-47039000D02*
X87089667Y-47039000D01*
X85883000Y-47109000D02*
X89503000Y-47109000D01*
X87089667Y-45839000D02*
X87089667Y-47109000D01*
X89503000Y-45839000D02*
X85883000Y-45839000D01*
X89503000Y-47109000D02*
X89503000Y-45839000D01*
X91103000Y-44364000D02*
X91103000Y-45674000D01*
X91103000Y-47274000D02*
X91103000Y-48584000D01*
%TO.C,SW20*%
X94493000Y-32424000D02*
X94493000Y-33807000D01*
X94493000Y-32424000D02*
X95876000Y-32424000D01*
X94733000Y-32664000D02*
X94733000Y-33974000D01*
X94733000Y-32664000D02*
X101553000Y-32664000D01*
X94733000Y-35574000D02*
X94733000Y-36884000D01*
X94733000Y-36884000D02*
X101553000Y-36884000D01*
X96333000Y-34139000D02*
X96333000Y-35409000D01*
X96333000Y-34259000D02*
X97539667Y-34259000D01*
X96333000Y-34379000D02*
X97539667Y-34379000D01*
X96333000Y-34499000D02*
X97539667Y-34499000D01*
X96333000Y-34619000D02*
X97539667Y-34619000D01*
X96333000Y-34739000D02*
X97539667Y-34739000D01*
X96333000Y-34859000D02*
X97539667Y-34859000D01*
X96333000Y-34979000D02*
X97539667Y-34979000D01*
X96333000Y-35099000D02*
X97539667Y-35099000D01*
X96333000Y-35219000D02*
X97539667Y-35219000D01*
X96333000Y-35339000D02*
X97539667Y-35339000D01*
X96333000Y-35409000D02*
X99953000Y-35409000D01*
X97539667Y-34139000D02*
X97539667Y-35409000D01*
X99953000Y-34139000D02*
X96333000Y-34139000D01*
X99953000Y-35409000D02*
X99953000Y-34139000D01*
X101553000Y-32664000D02*
X101553000Y-33974000D01*
X101553000Y-35574000D02*
X101553000Y-36884000D01*
D11*
%TO.C,D3*%
X62218000Y-71324000D02*
G75*
G02*
X62118000Y-71324000I-50000J0D01*
G01*
X62118000Y-71324000D02*
G75*
G02*
X62218000Y-71324000I50000J0D01*
G01*
%TO.C,D20*%
X70273000Y-69574000D02*
G75*
G02*
X70173000Y-69574000I-50000J0D01*
G01*
X70173000Y-69574000D02*
G75*
G02*
X70273000Y-69574000I50000J0D01*
G01*
%TO.C,D5*%
X62218000Y-74824000D02*
G75*
G02*
X62118000Y-74824000I-50000J0D01*
G01*
X62118000Y-74824000D02*
G75*
G02*
X62218000Y-74824000I50000J0D01*
G01*
D12*
%TO.C,SW21*%
X94493000Y-38274000D02*
X94493000Y-39657000D01*
X94493000Y-38274000D02*
X95876000Y-38274000D01*
X94733000Y-38514000D02*
X94733000Y-39824000D01*
X94733000Y-38514000D02*
X101553000Y-38514000D01*
X94733000Y-41424000D02*
X94733000Y-42734000D01*
X94733000Y-42734000D02*
X101553000Y-42734000D01*
X96333000Y-39989000D02*
X96333000Y-41259000D01*
X96333000Y-40109000D02*
X97539667Y-40109000D01*
X96333000Y-40229000D02*
X97539667Y-40229000D01*
X96333000Y-40349000D02*
X97539667Y-40349000D01*
X96333000Y-40469000D02*
X97539667Y-40469000D01*
X96333000Y-40589000D02*
X97539667Y-40589000D01*
X96333000Y-40709000D02*
X97539667Y-40709000D01*
X96333000Y-40829000D02*
X97539667Y-40829000D01*
X96333000Y-40949000D02*
X97539667Y-40949000D01*
X96333000Y-41069000D02*
X97539667Y-41069000D01*
X96333000Y-41189000D02*
X97539667Y-41189000D01*
X96333000Y-41259000D02*
X99953000Y-41259000D01*
X97539667Y-39989000D02*
X97539667Y-41259000D01*
X99953000Y-39989000D02*
X96333000Y-39989000D01*
X99953000Y-41259000D02*
X99953000Y-39989000D01*
X101553000Y-38514000D02*
X101553000Y-39824000D01*
X101553000Y-41424000D02*
X101553000Y-42734000D01*
D11*
%TO.C,D15*%
X67588000Y-71324000D02*
G75*
G02*
X67488000Y-71324000I-50000J0D01*
G01*
X67488000Y-71324000D02*
G75*
G02*
X67588000Y-71324000I50000J0D01*
G01*
%TO.C,D19*%
X70273000Y-67824000D02*
G75*
G02*
X70173000Y-67824000I-50000J0D01*
G01*
X70173000Y-67824000D02*
G75*
G02*
X70273000Y-67824000I50000J0D01*
G01*
%TO.C,D10*%
X64903000Y-73074000D02*
G75*
G02*
X64803000Y-73074000I-50000J0D01*
G01*
X64803000Y-73074000D02*
G75*
G02*
X64903000Y-73074000I50000J0D01*
G01*
%TO.C,D11*%
X64903000Y-74824000D02*
G75*
G02*
X64803000Y-74824000I-50000J0D01*
G01*
X64803000Y-74824000D02*
G75*
G02*
X64903000Y-74824000I50000J0D01*
G01*
D12*
%TO.C,SW4*%
X63143000Y-44124000D02*
X63143000Y-45507000D01*
X63143000Y-44124000D02*
X64526000Y-44124000D01*
X63383000Y-44364000D02*
X63383000Y-45674000D01*
X63383000Y-44364000D02*
X70203000Y-44364000D01*
X63383000Y-47274000D02*
X63383000Y-48584000D01*
X63383000Y-48584000D02*
X70203000Y-48584000D01*
X64983000Y-45839000D02*
X64983000Y-47109000D01*
X64983000Y-45959000D02*
X66189667Y-45959000D01*
X64983000Y-46079000D02*
X66189667Y-46079000D01*
X64983000Y-46199000D02*
X66189667Y-46199000D01*
X64983000Y-46319000D02*
X66189667Y-46319000D01*
X64983000Y-46439000D02*
X66189667Y-46439000D01*
X64983000Y-46559000D02*
X66189667Y-46559000D01*
X64983000Y-46679000D02*
X66189667Y-46679000D01*
X64983000Y-46799000D02*
X66189667Y-46799000D01*
X64983000Y-46919000D02*
X66189667Y-46919000D01*
X64983000Y-47039000D02*
X66189667Y-47039000D01*
X64983000Y-47109000D02*
X68603000Y-47109000D01*
X66189667Y-45839000D02*
X66189667Y-47109000D01*
X68603000Y-45839000D02*
X64983000Y-45839000D01*
X68603000Y-47109000D02*
X68603000Y-45839000D01*
X70203000Y-44364000D02*
X70203000Y-45674000D01*
X70203000Y-47274000D02*
X70203000Y-48584000D01*
%TO.C,SW14*%
X84043000Y-32424000D02*
X84043000Y-33807000D01*
X84043000Y-32424000D02*
X85426000Y-32424000D01*
X84283000Y-32664000D02*
X84283000Y-33974000D01*
X84283000Y-32664000D02*
X91103000Y-32664000D01*
X84283000Y-35574000D02*
X84283000Y-36884000D01*
X84283000Y-36884000D02*
X91103000Y-36884000D01*
X85883000Y-34139000D02*
X85883000Y-35409000D01*
X85883000Y-34259000D02*
X87089667Y-34259000D01*
X85883000Y-34379000D02*
X87089667Y-34379000D01*
X85883000Y-34499000D02*
X87089667Y-34499000D01*
X85883000Y-34619000D02*
X87089667Y-34619000D01*
X85883000Y-34739000D02*
X87089667Y-34739000D01*
X85883000Y-34859000D02*
X87089667Y-34859000D01*
X85883000Y-34979000D02*
X87089667Y-34979000D01*
X85883000Y-35099000D02*
X87089667Y-35099000D01*
X85883000Y-35219000D02*
X87089667Y-35219000D01*
X85883000Y-35339000D02*
X87089667Y-35339000D01*
X85883000Y-35409000D02*
X89503000Y-35409000D01*
X87089667Y-34139000D02*
X87089667Y-35409000D01*
X89503000Y-34139000D02*
X85883000Y-34139000D01*
X89503000Y-35409000D02*
X89503000Y-34139000D01*
X91103000Y-32664000D02*
X91103000Y-33974000D01*
X91103000Y-35574000D02*
X91103000Y-36884000D01*
%TO.C,SW11*%
X73593000Y-49974000D02*
X73593000Y-51357000D01*
X73593000Y-49974000D02*
X74976000Y-49974000D01*
X73833000Y-50214000D02*
X73833000Y-51524000D01*
X73833000Y-50214000D02*
X80653000Y-50214000D01*
X73833000Y-53124000D02*
X73833000Y-54434000D01*
X73833000Y-54434000D02*
X80653000Y-54434000D01*
X75433000Y-51689000D02*
X75433000Y-52959000D01*
X75433000Y-51809000D02*
X76639667Y-51809000D01*
X75433000Y-51929000D02*
X76639667Y-51929000D01*
X75433000Y-52049000D02*
X76639667Y-52049000D01*
X75433000Y-52169000D02*
X76639667Y-52169000D01*
X75433000Y-52289000D02*
X76639667Y-52289000D01*
X75433000Y-52409000D02*
X76639667Y-52409000D01*
X75433000Y-52529000D02*
X76639667Y-52529000D01*
X75433000Y-52649000D02*
X76639667Y-52649000D01*
X75433000Y-52769000D02*
X76639667Y-52769000D01*
X75433000Y-52889000D02*
X76639667Y-52889000D01*
X75433000Y-52959000D02*
X79053000Y-52959000D01*
X76639667Y-51689000D02*
X76639667Y-52959000D01*
X79053000Y-51689000D02*
X75433000Y-51689000D01*
X79053000Y-52959000D02*
X79053000Y-51689000D01*
X80653000Y-50214000D02*
X80653000Y-51524000D01*
X80653000Y-53124000D02*
X80653000Y-54434000D01*
%TO.C,SW2*%
X63143000Y-32424000D02*
X63143000Y-33807000D01*
X63143000Y-32424000D02*
X64526000Y-32424000D01*
X63383000Y-32664000D02*
X63383000Y-33974000D01*
X63383000Y-32664000D02*
X70203000Y-32664000D01*
X63383000Y-35574000D02*
X63383000Y-36884000D01*
X63383000Y-36884000D02*
X70203000Y-36884000D01*
X64983000Y-34139000D02*
X64983000Y-35409000D01*
X64983000Y-34259000D02*
X66189667Y-34259000D01*
X64983000Y-34379000D02*
X66189667Y-34379000D01*
X64983000Y-34499000D02*
X66189667Y-34499000D01*
X64983000Y-34619000D02*
X66189667Y-34619000D01*
X64983000Y-34739000D02*
X66189667Y-34739000D01*
X64983000Y-34859000D02*
X66189667Y-34859000D01*
X64983000Y-34979000D02*
X66189667Y-34979000D01*
X64983000Y-35099000D02*
X66189667Y-35099000D01*
X64983000Y-35219000D02*
X66189667Y-35219000D01*
X64983000Y-35339000D02*
X66189667Y-35339000D01*
X64983000Y-35409000D02*
X68603000Y-35409000D01*
X66189667Y-34139000D02*
X66189667Y-35409000D01*
X68603000Y-34139000D02*
X64983000Y-34139000D01*
X68603000Y-35409000D02*
X68603000Y-34139000D01*
X70203000Y-32664000D02*
X70203000Y-33974000D01*
X70203000Y-35574000D02*
X70203000Y-36884000D01*
%TO.C,SW9*%
X73593000Y-38274000D02*
X73593000Y-39657000D01*
X73593000Y-38274000D02*
X74976000Y-38274000D01*
X73833000Y-38514000D02*
X73833000Y-39824000D01*
X73833000Y-38514000D02*
X80653000Y-38514000D01*
X73833000Y-41424000D02*
X73833000Y-42734000D01*
X73833000Y-42734000D02*
X80653000Y-42734000D01*
X75433000Y-39989000D02*
X75433000Y-41259000D01*
X75433000Y-40109000D02*
X76639667Y-40109000D01*
X75433000Y-40229000D02*
X76639667Y-40229000D01*
X75433000Y-40349000D02*
X76639667Y-40349000D01*
X75433000Y-40469000D02*
X76639667Y-40469000D01*
X75433000Y-40589000D02*
X76639667Y-40589000D01*
X75433000Y-40709000D02*
X76639667Y-40709000D01*
X75433000Y-40829000D02*
X76639667Y-40829000D01*
X75433000Y-40949000D02*
X76639667Y-40949000D01*
X75433000Y-41069000D02*
X76639667Y-41069000D01*
X75433000Y-41189000D02*
X76639667Y-41189000D01*
X75433000Y-41259000D02*
X79053000Y-41259000D01*
X76639667Y-39989000D02*
X76639667Y-41259000D01*
X79053000Y-39989000D02*
X75433000Y-39989000D01*
X79053000Y-41259000D02*
X79053000Y-39989000D01*
X80653000Y-38514000D02*
X80653000Y-39824000D01*
X80653000Y-41424000D02*
X80653000Y-42734000D01*
D11*
%TO.C,D6*%
X62218000Y-76574000D02*
G75*
G02*
X62118000Y-76574000I-50000J0D01*
G01*
X62118000Y-76574000D02*
G75*
G02*
X62218000Y-76574000I50000J0D01*
G01*
%TO.C,D17*%
X67588000Y-74824000D02*
G75*
G02*
X67488000Y-74824000I-50000J0D01*
G01*
X67488000Y-74824000D02*
G75*
G02*
X67588000Y-74824000I50000J0D01*
G01*
%TO.C,D22*%
X70273000Y-73074000D02*
G75*
G02*
X70173000Y-73074000I-50000J0D01*
G01*
X70173000Y-73074000D02*
G75*
G02*
X70273000Y-73074000I50000J0D01*
G01*
D12*
%TO.C,SW10*%
X73593000Y-44124000D02*
X73593000Y-45507000D01*
X73593000Y-44124000D02*
X74976000Y-44124000D01*
X73833000Y-44364000D02*
X73833000Y-45674000D01*
X73833000Y-44364000D02*
X80653000Y-44364000D01*
X73833000Y-47274000D02*
X73833000Y-48584000D01*
X73833000Y-48584000D02*
X80653000Y-48584000D01*
X75433000Y-45839000D02*
X75433000Y-47109000D01*
X75433000Y-45959000D02*
X76639667Y-45959000D01*
X75433000Y-46079000D02*
X76639667Y-46079000D01*
X75433000Y-46199000D02*
X76639667Y-46199000D01*
X75433000Y-46319000D02*
X76639667Y-46319000D01*
X75433000Y-46439000D02*
X76639667Y-46439000D01*
X75433000Y-46559000D02*
X76639667Y-46559000D01*
X75433000Y-46679000D02*
X76639667Y-46679000D01*
X75433000Y-46799000D02*
X76639667Y-46799000D01*
X75433000Y-46919000D02*
X76639667Y-46919000D01*
X75433000Y-47039000D02*
X76639667Y-47039000D01*
X75433000Y-47109000D02*
X79053000Y-47109000D01*
X76639667Y-45839000D02*
X76639667Y-47109000D01*
X79053000Y-45839000D02*
X75433000Y-45839000D01*
X79053000Y-47109000D02*
X79053000Y-45839000D01*
X80653000Y-44364000D02*
X80653000Y-45674000D01*
X80653000Y-47274000D02*
X80653000Y-48584000D01*
%TO.C,SW24*%
X94493000Y-55824000D02*
X94493000Y-57207000D01*
X94493000Y-55824000D02*
X95876000Y-55824000D01*
X94733000Y-56064000D02*
X94733000Y-57374000D01*
X94733000Y-56064000D02*
X101553000Y-56064000D01*
X94733000Y-58974000D02*
X94733000Y-60284000D01*
X94733000Y-60284000D02*
X101553000Y-60284000D01*
X96333000Y-57539000D02*
X96333000Y-58809000D01*
X96333000Y-57659000D02*
X97539667Y-57659000D01*
X96333000Y-57779000D02*
X97539667Y-57779000D01*
X96333000Y-57899000D02*
X97539667Y-57899000D01*
X96333000Y-58019000D02*
X97539667Y-58019000D01*
X96333000Y-58139000D02*
X97539667Y-58139000D01*
X96333000Y-58259000D02*
X97539667Y-58259000D01*
X96333000Y-58379000D02*
X97539667Y-58379000D01*
X96333000Y-58499000D02*
X97539667Y-58499000D01*
X96333000Y-58619000D02*
X97539667Y-58619000D01*
X96333000Y-58739000D02*
X97539667Y-58739000D01*
X96333000Y-58809000D02*
X99953000Y-58809000D01*
X97539667Y-57539000D02*
X97539667Y-58809000D01*
X99953000Y-57539000D02*
X96333000Y-57539000D01*
X99953000Y-58809000D02*
X99953000Y-57539000D01*
X101553000Y-56064000D02*
X101553000Y-57374000D01*
X101553000Y-58974000D02*
X101553000Y-60284000D01*
%TO.C,SW19*%
X84043000Y-61674000D02*
X84043000Y-63057000D01*
X84043000Y-61674000D02*
X85426000Y-61674000D01*
X84283000Y-61914000D02*
X84283000Y-63224000D01*
X84283000Y-61914000D02*
X91103000Y-61914000D01*
X84283000Y-64824000D02*
X84283000Y-66134000D01*
X84283000Y-66134000D02*
X91103000Y-66134000D01*
X85883000Y-63389000D02*
X85883000Y-64659000D01*
X85883000Y-63509000D02*
X87089667Y-63509000D01*
X85883000Y-63629000D02*
X87089667Y-63629000D01*
X85883000Y-63749000D02*
X87089667Y-63749000D01*
X85883000Y-63869000D02*
X87089667Y-63869000D01*
X85883000Y-63989000D02*
X87089667Y-63989000D01*
X85883000Y-64109000D02*
X87089667Y-64109000D01*
X85883000Y-64229000D02*
X87089667Y-64229000D01*
X85883000Y-64349000D02*
X87089667Y-64349000D01*
X85883000Y-64469000D02*
X87089667Y-64469000D01*
X85883000Y-64589000D02*
X87089667Y-64589000D01*
X85883000Y-64659000D02*
X89503000Y-64659000D01*
X87089667Y-63389000D02*
X87089667Y-64659000D01*
X89503000Y-63389000D02*
X85883000Y-63389000D01*
X89503000Y-64659000D02*
X89503000Y-63389000D01*
X91103000Y-61914000D02*
X91103000Y-63224000D01*
X91103000Y-64824000D02*
X91103000Y-66134000D01*
%TO.C,R2*%
X81763000Y-96354000D02*
X81763000Y-98954000D01*
X81763000Y-96354000D02*
X86713000Y-96354000D01*
X95163000Y-96354000D02*
X90213000Y-96354000D01*
X95163000Y-96354000D02*
X95163000Y-98954000D01*
X95163000Y-102354000D02*
X81763000Y-102354000D01*
D11*
%TO.C,D4*%
X62218000Y-73074000D02*
G75*
G02*
X62118000Y-73074000I-50000J0D01*
G01*
X62118000Y-73074000D02*
G75*
G02*
X62218000Y-73074000I50000J0D01*
G01*
D12*
%TO.C,SW3*%
X63143000Y-38274000D02*
X63143000Y-39657000D01*
X63143000Y-38274000D02*
X64526000Y-38274000D01*
X63383000Y-38514000D02*
X63383000Y-39824000D01*
X63383000Y-38514000D02*
X70203000Y-38514000D01*
X63383000Y-41424000D02*
X63383000Y-42734000D01*
X63383000Y-42734000D02*
X70203000Y-42734000D01*
X64983000Y-39989000D02*
X64983000Y-41259000D01*
X64983000Y-40109000D02*
X66189667Y-40109000D01*
X64983000Y-40229000D02*
X66189667Y-40229000D01*
X64983000Y-40349000D02*
X66189667Y-40349000D01*
X64983000Y-40469000D02*
X66189667Y-40469000D01*
X64983000Y-40589000D02*
X66189667Y-40589000D01*
X64983000Y-40709000D02*
X66189667Y-40709000D01*
X64983000Y-40829000D02*
X66189667Y-40829000D01*
X64983000Y-40949000D02*
X66189667Y-40949000D01*
X64983000Y-41069000D02*
X66189667Y-41069000D01*
X64983000Y-41189000D02*
X66189667Y-41189000D01*
X64983000Y-41259000D02*
X68603000Y-41259000D01*
X66189667Y-39989000D02*
X66189667Y-41259000D01*
X68603000Y-39989000D02*
X64983000Y-39989000D01*
X68603000Y-41259000D02*
X68603000Y-39989000D01*
X70203000Y-38514000D02*
X70203000Y-39824000D01*
X70203000Y-41424000D02*
X70203000Y-42734000D01*
%TO.C,SW12*%
X73593000Y-55824000D02*
X73593000Y-57207000D01*
X73593000Y-55824000D02*
X74976000Y-55824000D01*
X73833000Y-56064000D02*
X73833000Y-57374000D01*
X73833000Y-56064000D02*
X80653000Y-56064000D01*
X73833000Y-58974000D02*
X73833000Y-60284000D01*
X73833000Y-60284000D02*
X80653000Y-60284000D01*
X75433000Y-57539000D02*
X75433000Y-58809000D01*
X75433000Y-57659000D02*
X76639667Y-57659000D01*
X75433000Y-57779000D02*
X76639667Y-57779000D01*
X75433000Y-57899000D02*
X76639667Y-57899000D01*
X75433000Y-58019000D02*
X76639667Y-58019000D01*
X75433000Y-58139000D02*
X76639667Y-58139000D01*
X75433000Y-58259000D02*
X76639667Y-58259000D01*
X75433000Y-58379000D02*
X76639667Y-58379000D01*
X75433000Y-58499000D02*
X76639667Y-58499000D01*
X75433000Y-58619000D02*
X76639667Y-58619000D01*
X75433000Y-58739000D02*
X76639667Y-58739000D01*
X75433000Y-58809000D02*
X79053000Y-58809000D01*
X76639667Y-57539000D02*
X76639667Y-58809000D01*
X79053000Y-57539000D02*
X75433000Y-57539000D01*
X79053000Y-58809000D02*
X79053000Y-57539000D01*
X80653000Y-56064000D02*
X80653000Y-57374000D01*
X80653000Y-58974000D02*
X80653000Y-60284000D01*
%TO.C,R3*%
X42468000Y-101653000D02*
X42468000Y-101383000D01*
X43178000Y-105438000D02*
X44218000Y-105438000D01*
X44218000Y-107538001D02*
X44218000Y-105438000D01*
X44218000Y-107538001D02*
X44678000Y-107538001D01*
X52938000Y-105438000D02*
X53978000Y-105438000D01*
X52938000Y-107058000D02*
X52938000Y-105438000D01*
X54688000Y-101653000D02*
X54688000Y-101383000D01*
%TO.C,SW15*%
X84043000Y-38274000D02*
X84043000Y-39657000D01*
X84043000Y-38274000D02*
X85426000Y-38274000D01*
X84283000Y-38514000D02*
X84283000Y-39824000D01*
X84283000Y-38514000D02*
X91103000Y-38514000D01*
X84283000Y-41424000D02*
X84283000Y-42734000D01*
X84283000Y-42734000D02*
X91103000Y-42734000D01*
X85883000Y-39989000D02*
X85883000Y-41259000D01*
X85883000Y-40109000D02*
X87089667Y-40109000D01*
X85883000Y-40229000D02*
X87089667Y-40229000D01*
X85883000Y-40349000D02*
X87089667Y-40349000D01*
X85883000Y-40469000D02*
X87089667Y-40469000D01*
X85883000Y-40589000D02*
X87089667Y-40589000D01*
X85883000Y-40709000D02*
X87089667Y-40709000D01*
X85883000Y-40829000D02*
X87089667Y-40829000D01*
X85883000Y-40949000D02*
X87089667Y-40949000D01*
X85883000Y-41069000D02*
X87089667Y-41069000D01*
X85883000Y-41189000D02*
X87089667Y-41189000D01*
X85883000Y-41259000D02*
X89503000Y-41259000D01*
X87089667Y-39989000D02*
X87089667Y-41259000D01*
X89503000Y-39989000D02*
X85883000Y-39989000D01*
X89503000Y-41259000D02*
X89503000Y-39989000D01*
X91103000Y-38514000D02*
X91103000Y-39824000D01*
X91103000Y-41424000D02*
X91103000Y-42734000D01*
%TO.C,J1*%
X101942000Y-94438000D02*
X101942000Y-87348000D01*
X101942000Y-99507999D02*
X101942000Y-97858000D01*
X104112000Y-99508000D02*
X101942000Y-99507999D01*
X112932000Y-99508000D02*
X112932000Y-101348000D01*
X112932000Y-99508000D02*
X115102000Y-99507999D01*
X115102000Y-94438000D02*
X115102000Y-87348000D01*
X115102000Y-99507999D02*
X115102000Y-97858000D01*
D11*
%TO.C,D2*%
X62218000Y-69574000D02*
G75*
G02*
X62118000Y-69574000I-50000J0D01*
G01*
X62118000Y-69574000D02*
G75*
G02*
X62218000Y-69574000I50000J0D01*
G01*
%TO.C,D9*%
X64903000Y-71324000D02*
G75*
G02*
X64803000Y-71324000I-50000J0D01*
G01*
X64803000Y-71324000D02*
G75*
G02*
X64903000Y-71324000I50000J0D01*
G01*
D12*
%TO.C,SW25*%
X94493000Y-61674000D02*
X94493000Y-63057000D01*
X94493000Y-61674000D02*
X95876000Y-61674000D01*
X94733000Y-61914000D02*
X94733000Y-63224000D01*
X94733000Y-61914000D02*
X101553000Y-61914000D01*
X94733000Y-64824000D02*
X94733000Y-66134000D01*
X94733000Y-66134000D02*
X101553000Y-66134000D01*
X96333000Y-63389000D02*
X96333000Y-64659000D01*
X96333000Y-63509000D02*
X97539667Y-63509000D01*
X96333000Y-63629000D02*
X97539667Y-63629000D01*
X96333000Y-63749000D02*
X97539667Y-63749000D01*
X96333000Y-63869000D02*
X97539667Y-63869000D01*
X96333000Y-63989000D02*
X97539667Y-63989000D01*
X96333000Y-64109000D02*
X97539667Y-64109000D01*
X96333000Y-64229000D02*
X97539667Y-64229000D01*
X96333000Y-64349000D02*
X97539667Y-64349000D01*
X96333000Y-64469000D02*
X97539667Y-64469000D01*
X96333000Y-64589000D02*
X97539667Y-64589000D01*
X96333000Y-64659000D02*
X99953000Y-64659000D01*
X97539667Y-63389000D02*
X97539667Y-64659000D01*
X99953000Y-63389000D02*
X96333000Y-63389000D01*
X99953000Y-64659000D02*
X99953000Y-63389000D01*
X101553000Y-61914000D02*
X101553000Y-63224000D01*
X101553000Y-64824000D02*
X101553000Y-66134000D01*
D11*
%TO.C,D14*%
X67588000Y-69574000D02*
G75*
G02*
X67488000Y-69574000I-50000J0D01*
G01*
X67488000Y-69574000D02*
G75*
G02*
X67588000Y-69574000I50000J0D01*
G01*
D12*
%TO.C,SW8*%
X73593000Y-32424000D02*
X73593000Y-33807000D01*
X73593000Y-32424000D02*
X74976000Y-32424000D01*
X73833000Y-32664000D02*
X73833000Y-33974000D01*
X73833000Y-32664000D02*
X80653000Y-32664000D01*
X73833000Y-35574000D02*
X73833000Y-36884000D01*
X73833000Y-36884000D02*
X80653000Y-36884000D01*
X75433000Y-34139000D02*
X75433000Y-35409000D01*
X75433000Y-34259000D02*
X76639667Y-34259000D01*
X75433000Y-34379000D02*
X76639667Y-34379000D01*
X75433000Y-34499000D02*
X76639667Y-34499000D01*
X75433000Y-34619000D02*
X76639667Y-34619000D01*
X75433000Y-34739000D02*
X76639667Y-34739000D01*
X75433000Y-34859000D02*
X76639667Y-34859000D01*
X75433000Y-34979000D02*
X76639667Y-34979000D01*
X75433000Y-35099000D02*
X76639667Y-35099000D01*
X75433000Y-35219000D02*
X76639667Y-35219000D01*
X75433000Y-35339000D02*
X76639667Y-35339000D01*
X75433000Y-35409000D02*
X79053000Y-35409000D01*
X76639667Y-34139000D02*
X76639667Y-35409000D01*
X79053000Y-34139000D02*
X75433000Y-34139000D01*
X79053000Y-35409000D02*
X79053000Y-34139000D01*
X80653000Y-32664000D02*
X80653000Y-33974000D01*
X80653000Y-35574000D02*
X80653000Y-36884000D01*
D11*
%TO.C,D23*%
X70273000Y-74824000D02*
G75*
G02*
X70173000Y-74824000I-50000J0D01*
G01*
X70173000Y-74824000D02*
G75*
G02*
X70273000Y-74824000I50000J0D01*
G01*
D12*
%TO.C,SW7*%
X63143000Y-61674000D02*
X63143000Y-63057000D01*
X63143000Y-61674000D02*
X64526000Y-61674000D01*
X63383000Y-61914000D02*
X63383000Y-63224000D01*
X63383000Y-61914000D02*
X70203000Y-61914000D01*
X63383000Y-64824000D02*
X63383000Y-66134000D01*
X63383000Y-66134000D02*
X70203000Y-66134000D01*
X64983000Y-63389000D02*
X64983000Y-64659000D01*
X64983000Y-63509000D02*
X66189667Y-63509000D01*
X64983000Y-63629000D02*
X66189667Y-63629000D01*
X64983000Y-63749000D02*
X66189667Y-63749000D01*
X64983000Y-63869000D02*
X66189667Y-63869000D01*
X64983000Y-63989000D02*
X66189667Y-63989000D01*
X64983000Y-64109000D02*
X66189667Y-64109000D01*
X64983000Y-64229000D02*
X66189667Y-64229000D01*
X64983000Y-64349000D02*
X66189667Y-64349000D01*
X64983000Y-64469000D02*
X66189667Y-64469000D01*
X64983000Y-64589000D02*
X66189667Y-64589000D01*
X64983000Y-64659000D02*
X68603000Y-64659000D01*
X66189667Y-63389000D02*
X66189667Y-64659000D01*
X68603000Y-63389000D02*
X64983000Y-63389000D01*
X68603000Y-64659000D02*
X68603000Y-63389000D01*
X70203000Y-61914000D02*
X70203000Y-63224000D01*
X70203000Y-64824000D02*
X70203000Y-66134000D01*
D11*
%TO.C,D13*%
X67588000Y-67824000D02*
G75*
G02*
X67488000Y-67824000I-50000J0D01*
G01*
X67488000Y-67824000D02*
G75*
G02*
X67588000Y-67824000I50000J0D01*
G01*
D12*
%TO.C,SW1*%
X81493000Y-103814000D02*
X81493000Y-105197000D01*
X81493000Y-103814000D02*
X82876000Y-103814000D01*
X81733000Y-104054000D02*
X81733000Y-105364000D01*
X81733000Y-104054000D02*
X88553000Y-104054000D01*
X81733000Y-106964000D02*
X81733000Y-108274000D01*
X81733000Y-108274000D02*
X88553000Y-108274000D01*
X83333000Y-105529000D02*
X83333000Y-106799000D01*
X83333000Y-105649000D02*
X84539667Y-105649000D01*
X83333000Y-105769000D02*
X84539667Y-105769000D01*
X83333000Y-105889000D02*
X84539667Y-105889000D01*
X83333000Y-106009000D02*
X84539667Y-106009000D01*
X83333000Y-106129000D02*
X84539667Y-106129000D01*
X83333000Y-106249000D02*
X84539667Y-106249000D01*
X83333000Y-106369000D02*
X84539667Y-106369000D01*
X83333000Y-106489000D02*
X84539667Y-106489000D01*
X83333000Y-106609000D02*
X84539667Y-106609000D01*
X83333000Y-106729000D02*
X84539667Y-106729000D01*
X83333000Y-106799000D02*
X86953000Y-106799000D01*
X84539667Y-105529000D02*
X84539667Y-106799000D01*
X86953000Y-105529000D02*
X83333000Y-105529000D01*
X86953000Y-106799000D02*
X86953000Y-105529000D01*
X88553000Y-104054000D02*
X88553000Y-105364000D01*
X88553000Y-106964000D02*
X88553000Y-108274000D01*
D11*
%TO.C,D8*%
X64903000Y-69574000D02*
G75*
G02*
X64803000Y-69574000I-50000J0D01*
G01*
X64803000Y-69574000D02*
G75*
G02*
X64903000Y-69574000I50000J0D01*
G01*
%TO.C,D18*%
X67588000Y-76574000D02*
G75*
G02*
X67488000Y-76574000I-50000J0D01*
G01*
X67488000Y-76574000D02*
G75*
G02*
X67588000Y-76574000I50000J0D01*
G01*
D12*
%TO.C,U1*%
X129718199Y-78074800D02*
X129718199Y-77664800D01*
X129718199Y-84644800D02*
X129718199Y-83994800D01*
X130368199Y-77424800D02*
X130018199Y-77424800D01*
X130368199Y-84644800D02*
X129718199Y-84644800D01*
X136288199Y-77424800D02*
X136938199Y-77424800D01*
X136288199Y-84644800D02*
X136938199Y-84644800D01*
X136938199Y-77424800D02*
X136938199Y-78074800D01*
X136938199Y-84644800D02*
X136938199Y-83994800D01*
X129718199Y-77424800D02*
X129478199Y-77094800D01*
X129958199Y-77094800D01*
X129718199Y-77424800D01*
G36*
X129718199Y-77424800D02*
G01*
X129478199Y-77094800D01*
X129958199Y-77094800D01*
X129718199Y-77424800D01*
G37*
%TO.C,SW13*%
X73593000Y-61674000D02*
X73593000Y-63057000D01*
X73593000Y-61674000D02*
X74976000Y-61674000D01*
X73833000Y-61914000D02*
X73833000Y-63224000D01*
X73833000Y-61914000D02*
X80653000Y-61914000D01*
X73833000Y-64824000D02*
X73833000Y-66134000D01*
X73833000Y-66134000D02*
X80653000Y-66134000D01*
X75433000Y-63389000D02*
X75433000Y-64659000D01*
X75433000Y-63509000D02*
X76639667Y-63509000D01*
X75433000Y-63629000D02*
X76639667Y-63629000D01*
X75433000Y-63749000D02*
X76639667Y-63749000D01*
X75433000Y-63869000D02*
X76639667Y-63869000D01*
X75433000Y-63989000D02*
X76639667Y-63989000D01*
X75433000Y-64109000D02*
X76639667Y-64109000D01*
X75433000Y-64229000D02*
X76639667Y-64229000D01*
X75433000Y-64349000D02*
X76639667Y-64349000D01*
X75433000Y-64469000D02*
X76639667Y-64469000D01*
X75433000Y-64589000D02*
X76639667Y-64589000D01*
X75433000Y-64659000D02*
X79053000Y-64659000D01*
X76639667Y-63389000D02*
X76639667Y-64659000D01*
X79053000Y-63389000D02*
X75433000Y-63389000D01*
X79053000Y-64659000D02*
X79053000Y-63389000D01*
X80653000Y-61914000D02*
X80653000Y-63224000D01*
X80653000Y-64824000D02*
X80653000Y-66134000D01*
%TO.C,SW22*%
X94493000Y-44124000D02*
X94493000Y-45507000D01*
X94493000Y-44124000D02*
X95876000Y-44124000D01*
X94733000Y-44364000D02*
X94733000Y-45674000D01*
X94733000Y-44364000D02*
X101553000Y-44364000D01*
X94733000Y-47274000D02*
X94733000Y-48584000D01*
X94733000Y-48584000D02*
X101553000Y-48584000D01*
X96333000Y-45839000D02*
X96333000Y-47109000D01*
X96333000Y-45959000D02*
X97539667Y-45959000D01*
X96333000Y-46079000D02*
X97539667Y-46079000D01*
X96333000Y-46199000D02*
X97539667Y-46199000D01*
X96333000Y-46319000D02*
X97539667Y-46319000D01*
X96333000Y-46439000D02*
X97539667Y-46439000D01*
X96333000Y-46559000D02*
X97539667Y-46559000D01*
X96333000Y-46679000D02*
X97539667Y-46679000D01*
X96333000Y-46799000D02*
X97539667Y-46799000D01*
X96333000Y-46919000D02*
X97539667Y-46919000D01*
X96333000Y-47039000D02*
X97539667Y-47039000D01*
X96333000Y-47109000D02*
X99953000Y-47109000D01*
X97539667Y-45839000D02*
X97539667Y-47109000D01*
X99953000Y-45839000D02*
X96333000Y-45839000D01*
X99953000Y-47109000D02*
X99953000Y-45839000D01*
X101553000Y-44364000D02*
X101553000Y-45674000D01*
X101553000Y-47274000D02*
X101553000Y-48584000D01*
D11*
%TO.C,D24*%
X70273000Y-76574000D02*
G75*
G02*
X70173000Y-76574000I-50000J0D01*
G01*
X70173000Y-76574000D02*
G75*
G02*
X70273000Y-76574000I50000J0D01*
G01*
%TO.C,D1*%
X62218000Y-67824000D02*
G75*
G02*
X62118000Y-67824000I-50000J0D01*
G01*
X62118000Y-67824000D02*
G75*
G02*
X62218000Y-67824000I50000J0D01*
G01*
D13*
%TO.C,X1*%
X136553400Y-81924000D02*
G75*
G02*
X136299400Y-81924000I-127000J0D01*
G01*
X136299400Y-81924000D02*
G75*
G02*
X136553400Y-81924000I127000J0D01*
G01*
D12*
%TO.C,SW6*%
X63143000Y-55824000D02*
X63143000Y-57207000D01*
X63143000Y-55824000D02*
X64526000Y-55824000D01*
X63383000Y-56064000D02*
X63383000Y-57374000D01*
X63383000Y-56064000D02*
X70203000Y-56064000D01*
X63383000Y-58974000D02*
X63383000Y-60284000D01*
X63383000Y-60284000D02*
X70203000Y-60284000D01*
X64983000Y-57539000D02*
X64983000Y-58809000D01*
X64983000Y-57659000D02*
X66189667Y-57659000D01*
X64983000Y-57779000D02*
X66189667Y-57779000D01*
X64983000Y-57899000D02*
X66189667Y-57899000D01*
X64983000Y-58019000D02*
X66189667Y-58019000D01*
X64983000Y-58139000D02*
X66189667Y-58139000D01*
X64983000Y-58259000D02*
X66189667Y-58259000D01*
X64983000Y-58379000D02*
X66189667Y-58379000D01*
X64983000Y-58499000D02*
X66189667Y-58499000D01*
X64983000Y-58619000D02*
X66189667Y-58619000D01*
X64983000Y-58739000D02*
X66189667Y-58739000D01*
X64983000Y-58809000D02*
X68603000Y-58809000D01*
X66189667Y-57539000D02*
X66189667Y-58809000D01*
X68603000Y-57539000D02*
X64983000Y-57539000D01*
X68603000Y-58809000D02*
X68603000Y-57539000D01*
X70203000Y-56064000D02*
X70203000Y-57374000D01*
X70203000Y-58974000D02*
X70203000Y-60284000D01*
%TO.C,SW5*%
X63143000Y-49974000D02*
X63143000Y-51357000D01*
X63143000Y-49974000D02*
X64526000Y-49974000D01*
X63383000Y-50214000D02*
X63383000Y-51524000D01*
X63383000Y-50214000D02*
X70203000Y-50214000D01*
X63383000Y-53124000D02*
X63383000Y-54434000D01*
X63383000Y-54434000D02*
X70203000Y-54434000D01*
X64983000Y-51689000D02*
X64983000Y-52959000D01*
X64983000Y-51809000D02*
X66189667Y-51809000D01*
X64983000Y-51929000D02*
X66189667Y-51929000D01*
X64983000Y-52049000D02*
X66189667Y-52049000D01*
X64983000Y-52169000D02*
X66189667Y-52169000D01*
X64983000Y-52289000D02*
X66189667Y-52289000D01*
X64983000Y-52409000D02*
X66189667Y-52409000D01*
X64983000Y-52529000D02*
X66189667Y-52529000D01*
X64983000Y-52649000D02*
X66189667Y-52649000D01*
X64983000Y-52769000D02*
X66189667Y-52769000D01*
X64983000Y-52889000D02*
X66189667Y-52889000D01*
X64983000Y-52959000D02*
X68603000Y-52959000D01*
X66189667Y-51689000D02*
X66189667Y-52959000D01*
X68603000Y-51689000D02*
X64983000Y-51689000D01*
X68603000Y-52959000D02*
X68603000Y-51689000D01*
X70203000Y-50214000D02*
X70203000Y-51524000D01*
X70203000Y-53124000D02*
X70203000Y-54434000D01*
D11*
%TO.C,D21*%
X70273000Y-71324000D02*
G75*
G02*
X70173000Y-71324000I-50000J0D01*
G01*
X70173000Y-71324000D02*
G75*
G02*
X70273000Y-71324000I50000J0D01*
G01*
%TD*%
M02*
